<svg xmlns="http://www.w3.org/2000/svg" xml:space="preserve" id="Layer_1" x="0" y="0" shape-rendering="crispEdges" style="enable-background:new 0 0 150 150" version="1.1" viewBox="0 0 150 150"><style>.st0{fill:#24523b}.st1{fill:#1a7a3e}.st2{fill:#285cc4}.st3{fill:#e3e6ff}.st4{fill:#242234}.st5{fill:#78c64f}.st6{fill:#141013}.st7{fill:#14a02e}.st8{fill:#4a5462}.st9{fill:#bb7547}.st10{fill:#fffc40}.st12{fill:#ffd541}.st13{fill:#dba463}.st14{fill:#333941}.st16{fill:#403353}.st17{opacity:.2549;enable-background:new}.st18{fill:#ffc193}.st19{fill:#2f4b76}.st20{fill:#4277ab}.st21{fill:#143464}.st22{fill:#fb8c6f}.st23{fill:#122020}.st24{fill:#fa7a63}.st25{fill:#fff}.st26{fill:#fc9d7b}.st27{fill:#f96958}.st28{fill:#fdaf87}.st29{fill:#dae0ea}.st30{fill:#f59e55}.st31{fill:#dc7e42}.st32{fill:#cf683b}.st33{fill:#c25234}.st34{fill:#b13d1e}.st35{fill:#9b3013}.st36{fill:#b3b9d1}.st37{fill:#8b93af}.st38{fill:#6d758d}</style><path d="M43 39h1v1h-1zM37 40h1v1h-1zM38 41h1v1h-1zM41 41h1v1h-1zM36 42h1v1h-1zM40 42h1v1h-1zM43 42h1v1h-1zM35 43h1v1h-1zM41 43v2h1v-1h1v-1h-1zM35 46h1v1h-1zM36 47h1v1h-1zM40 48h-2v1h1v1h1v-1h1v-1zM36 49h1v1h-1zM41 49h1v1h-1z" class="st0"/><path d="M43 38h1v1h-1zM44 39h1v1h-1zM37 40v-1h-1v2h1zM43 41v1h1v-2h-1zM37 41h1v1h-1zM41 41v-1h2v-1h-1v-1h-1v-1h-1v1h-1v3h1v1h1zM41 42v1h2v-1h-1zM33 43h1v1h-1zM41 43h-1v-1h-1v2h1v1h1v-1zM35 45v1h1v1h1v-2h-1v-1h-2v1zM43 44h1v1h-1zM45 44h1v1h-1zM42 45h-1v1h2v-1zM40 46h1v1h-1zM43 46h1v1h-1zM38 47h1v1h-1zM44 47h1v1h-1zM36 48h-1v2h1v-1h1v2h1v-3h-1zM45 49v2h1v-3h-1zM40 50v2h1v-1h1v-1h-1z" class="st1"/><path d="M56 43h1v1h-1zM93 43v-1H57v1h2v2h-2v3h1v-2h2v2h-2v4h34v-4h1v-4h1v-1h-1zm-33 8h-1v-2h2v2h-1zm23 0H64v-1h-1v-3h-1v-2h1v-1h2v-1h20v1h1v3h-1v3h-1v1h-1z" class="st2"/><path d="M67 44h18v-1H65v1h1zM85 46v1h1v-3h-1v1zM65 46v-2h-1v3h1zM84 48v2h1v-3h-1zM66 48v-1h-1v3h1v-1zM82 50H66v1h18v-1h-1zM90 52H59v1h32v-1z" class="st3"/><path d="M64 46v-1h-1v2h1zM66 48v2h18v-3h1v-3H65v3h1v1zm6-3v1h-1v-1h1zm-2 0v1h-1v-1h1zm-2 0v1h-1v-1h1zM64 49v1h1v-3h-1v1zM87 53H62v1h26v-1z" class="st4"/><path d="M34 32h1v1h-1zM33 39h2v-1h-1v-2h-1v-1h1v-2h-1v1h-1v4h1zM36 39h1v1h1v-1h1v-2h-1v-1h-1v1h-2v1h1zM35 42h1v1h-1zM34 43h1v1h-1zM34 45h-1v-1h-1v-1h2v-1h-3v1h-1v1h1v1h1v1h2zM39 45h-1v-2h-1v3h1v1h2v-1h-1zM35 47h1v1h-1zM34 48h1v1h-1zM44 49v-1h-1v-2h-1v3h1v1h2v-1zM37 52v1h-1v1h-1v1h2v-1h1v-3h-1z" class="st5"/><path d="M94 42v-1H56v1h-1v2h1v-1h1v-1h36v1h1v1h1v-2zM93 45v3h1v-4h-1zM57 46v-2h-1v4h1v-1zM92 49v3h1v-4h-1zM58 50v-2h-1v4h1v-1zM91 53h-3v1H62v-1h-3v-1h-1v2h3v1h28v-1h3v-2h-1z" class="st6"/><path d="M34 37v1h1v-1h2v-2h-1v-2h-2v2h-1v1h1zM43 37h1v1h-1zM42 38h1v1h-1zM44 38h1v1h-1zM34 39v1h2v-2h-1v1zM45 39h1v1h-1zM42 40h1v1h-1zM44 40h1v1h-1zM32 43h1v1h-1zM36 44v1h1v-2h-1zM47 43h-1v-1h-1v1h-1v2h1v-1h1v1h-1v1h2v-1h1v-1h-1zM33 44h1v1h-1zM34 45h1v1h-1zM40 45v-1h-1v-2h-2v1h1v2h1v1h2v-1zM43 45h1v1h-1zM67 45h1v1h-1zM69 45h1v1h-1zM71 45h1v1h-1zM34 47h1v1h-1zM38 47v-1h-1v2h1zM42 47v-1h-1v1h-2v1h2v1h1v-1zM43 47h1v1h-1zM44 48h1v1h-1zM39 49h-1v5h1v-3h1v-1h-1zM40 49h1v1h-1zM42 49h1v1h-1zM43 50v1h2v-1h-1zM37 54h1v1h-1zM35 55v-1h1v-1h1v-3h-1v2h-1v1h-1v3h3v-1h-1z" class="st7"/><path d="M60 56h1v1h-1zM61 56h1v1h-1zM62 56h1v1h-1zM63 56h1v1h-1zM64 56h1v1h-1zM65 56h1v1h-1zM66 56h1v1h-1zM67 56h1v1h-1zM68 56h1v1h-1zM69 56h1v1h-1zM70 56h1v1h-1zM71 56h1v1h-1zM72 56h1v1h-1zM73 56h1v1h-1zM74 56h1v1h-1zM75 56h1v1h-1zM76 56h1v1h-1zM77 56h1v1h-1zM78 56h1v1h-1zM79 56h1v1h-1zM80 56h1v1h-1zM81 56h1v1h-1zM82 56h1v1h-1zM83 56h1v1h-1zM84 56h1v1h-1zM85 56h1v1h-1zM86 56h1v1h-1zM87 56h1v1h-1zM88 56h1v1h-1zM89 56h1v1h-1z" class="st8"/><path d="M44 60h1v1h-1zM47 60h1v1h-1zM43 61h1v1h-1zM48 61h1v1h-1z" class="st9"/><path d="M45 59h-1v1h2v-1zM43 60h1v1h-1zM42 62v2h1v-3h-1z" class="st10"/><path d="M43 64h1v1h-1zM48 64h1v1h-1zM44 65h1v1h-1z" class="st9"/><path d="M48 62v-1h-1v-1h-2v1h-1v1h-1v2h1v1h1v1h2v-1h1v-1h1v-2z" style="fill:#71413b"/><path d="M47 65h1v1h-1zM49 65h1v1h-1z" class="st9"/><path d="M47 59h-1v1h2v-1zM48 60h1v1h-1zM42 64h1v1h-1zM43 65h1v1h-1zM44 66v1h2v-1h-1z" class="st12"/><path d="M48 66h1v1h-1zM50 66h1v1h-1zM49 67h1v1h-1z" class="st9"/><path d="M50 64v-3h-1v4h1zM48 65h1v1h-1zM46 66v1h2v-1h-1zM49 66h1v1h-1zM50 67h1v1h-1z" class="st13"/><path d="M90 55h-1v1h1v2h-2v1h2v1h-2v1h1v2h1v1h-4v1h4v2h1V55zM62 58h1v1h-1zM64 58h1v1h-1zM66 58h1v1h-1zM68 58h1v1h-1zM70 58h1v1h-1zM72 58h1v1h-1zM74 58h1v1h-1zM76 58h1v1h-1zM78 58h1v1h-1zM80 58h1v1h-1zM82 58h1v1h-1zM84 58h1v1h-1zM86 58h1v1h-1z" class="st14"/><path d="M87 63h1v-1H60v-1h27v-1H60v-1h1v-1h-1v-2h1v-1h-2v13h2v-1h2v-1h-3v-1h24v-1H60v-1h26z" class="st14"/><path d="M77 66h-6v1h8v-1h-1zM80 66v1h2v-1h-1z" class="st14"/><path d="M106 70v-1h-1v-1h-1v7h1v1h1v1h1v-7z" style="fill:#b9bffb"/><path d="M107 41h1v1h-1zM106 43h1v1h-1zM105 45h1v1h-1zM104 47h1v1h-1zM103 49h1v1h-1zM102 51h1v1h-1zM101 53h1v1h-1zM100 55h1v1h-1zM105 68v-1h-2v1h1zM102 68h1v1h-1zM105 68h1v1h-1zM101 69h1v1h-1zM106 69h1v1h-1zM101 70h-1v2h1v-1zM107 70h1v1h-1zM108 71h1v1h-1zM101 72h1v1h-1zM109 72h1v1h-1zM102 73h1v1h-1zM110 73h1v1h-1zM103 74h1v1h-1zM111 74v2h1v-2zM104 75h1v1h-1zM105 76h1v1h-1zM110 76h1v1h-1zM106 77h1v1h-1zM109 77h1v1h-1zM107 78v1h2v-1h-1z" class="st16"/><path d="M110 41h-1v1h2v-1zM112 42h-1v1h2v-1zM114 43h-1v1h2v-1zM116 44h-1v1h2v-1zM118 45h-1v1h2v-1zM120 46h-1v1h2v-1zM121 47v1h-1v2h-1v2h-1v2h-1v2h-1v2h-1v2h-1v2h-1v2h1v-1h1v-2h1v-2h1v-2h1v-2h1v-2h1v-2h1v-2h1v-2zM46 54h1v1h1v-1h1v-2h-1v-1h1v-1h1v-3h1v-1h1v-1h-1v-1h-1v-1h-1v-2h-1v-1h-1v-1h-1v1h-1v2h1v1h1v1h1v1h-1v1h-1v5h-3v1h-2v1h-2v1h1v1h-1v2h2v-1h1v-2h1v1h1v-1h1v-1h1zM48 59h1v1h-1zM52 66v-5h-1v-1h-2v1h1v5h1v3h2v-2h-1zM47 67h-1v1h3v-1h-1zM105 67h1v1h-1zM106 68h1v1h-1zM107 69h1v1h-1zM108 70h1v1h-1zM109 71h1v1h-1zM110 72h1v1h-1zM111 73h1v1h-1zM112 75v1h1v-2h-1zM111 76h1v1h-1zM110 77h1v1h-1zM85 78H66v1h-1v1h-1v2h-1v1h4v-1h1v-2h1v-1h18v-1h-1zM109 78h1v1h-1zM101 81h-1v-1h-1v-1h-1v-9h-1v-1h-1v-1h-1V55h-1v-1h-2v1h1v22h1v2h1v1h1v1h1v2h5v-1h-1z" class="st17"/><path d="M85 64h1v1h-1zM67 65h-2v1h1v1h2v-1h-1zM69 65h-1v1h2v-1zM83 65h-1v2h1v-1zM65 67v-1h-2v1h1zM70 66h1v1h-1zM86 67h1v-2h-1v1zM65 67h1v1h-1zM68 67h1v1h-1zM83 67h1v1h-1zM63 68v-1h-1v3h-1v5h1v-3h1v1h2v-1h1v-1h-1v-1h-1v-1h1v-1h-1zM82 68h-1v2h1v-1zM87 69v1h1v-3h-1v1zM66 70h1v-2h-1v1zM84 70v1h1v-3h-1v1zM83 71v-1h-1v3h1v-1zM85 73h1v-2h-1v1zM83 74v1h1v-2h-1zM60 75h1v1h-1zM59 76h1v1h-1zM58 77h1v1h-1zM88 77v-1h-2v-2h-1v3h1v1h1v1h1v-1zM57 78h1v1h-1zM56 79h1v1h-1zM55 80h1v1h-1zM54 81h1v1h-1zM90 81h-1v-2h-1v3h1v1h1v-1zM53 82h1v1h-1zM52 83h1v1h-1zM51 84h1v1h-1zM91 84v-1h-1v3h1v-1zM91 86v2h1v-2zM74 89h1v1h-1z" class="st18"/><path d="M38 39h1v1h-1zM34 40v1h-1v1h2v-1h1v-1h-1zM33 46h-1v2h1v-1zM44 46h1v1h-1zM35 49h-1v-1h-1v2h1v1h2v-1h-1zM42 50h1v1h-1zM39 51h1v1h-1zM103 69h-1v1h-1v2h1v1h1v1h1v-6h-1zM110 74v-1h-1v-1h-1v-1h-1v7h2v-1h1v-1h1v-2zM64 84v-1h-1v1h-1v2h1v1h-1v1h1v1h1v-2h1v-1h1v-2h-1zM87 85h-1v-1h-2v1h1v1h1v1h-1v-1h-1v1h-1v-1h-1v-1h1v-1h-3v2h-1v1h1v1h7v-1h1v-1h-1zM61 88h1v1h-1zM62 89h1v1h-1zM61 91h-1v1h2v-2h-1zM59 92h1v1h-1z" class="st19"/><path d="M33 40h1v1h-1zM32 41h1v1h-1zM45 42v-1h-1v2h1zM32 46v-1h-1v3h1v-1zM45 47v1h1v-2h-1zM33 48h-1v2h1v-1zM33 50h1v1h-1zM34 51v1h2v-1h-1zM41 51v1h2v-1h-1zM39 52v1h2v-1h-1zM62 85h-1v2h-1v4h1v-1h1v-1h-1v-1h1v-1h1v-1h-1zM84 85v-1h-1v1h-1v1h1v1h1v-1h1v-1zM85 86h1v1h-1z" class="st20"/><path d="M62 88h1v1h-1zM58 91v2h-1v2h2v-1h1v-1h-1v-1h1v-1h-1zM60 92h1v1h-1z" class="st20"/><path d="M65 86h1v1h-1zM64 88v1h1v-2h-1zM74 87v-1h-1v-1h-1v-1h-3v-1h-5v1h2v1h2v1h2v1h1v1h1v1h1v1h1v-1h1v-1h-1zM88 89v1h1v-1h1v-2h-1v-3h-1v-1h-9v1h-1v1h-1v2h-1v2h1v1h1v1h1v-1h1v-1h1v-1h-1v-1h-1v-1h1v-2h6v1h1v1h1v1h-1v1h-5v1h4v1h1v-1zM63 89h1v1h-1zM62 90h1v1h-1z" class="st21"/><path d="M87 90h1v1h-1zM88 91h1v1h-1zM89 92h1v1h-1zM90 93h1v1h-1zM91 94h1v1h-1z" class="st21"/><path d="M75 89h1v1h-1zM74 90h1v1h-1zM76 90h1v1h-1zM71 92v1h2v-1h-1zM81 92h1v1h-1zM70 93h1v1h-1zM82 93h1v1h-1zM68 94h1v1h-1zM83 94h1v1h-1zM84 95h1v1h-1zM67 96h1v1h-1z" class="st22"/><path d="M38 40h1v1h-1zM41 40h1v1h-1zM35 41v1h2v-1h-1zM39 41h1v1h-1zM42 41h1v1h-1zM34 42h1v1h-1zM43 43h1v1h-1zM42 44h1v1h-1zM44 45h1v1h-1zM33 46v2h1v-1h1v-1h-1zM77 83h-8v1h3v1h1v1h1v2h1v1h1v-2h1v-2h1v-1h1v-1h-1zM87 89h1v1h-1zM92 93v-5h-1v-2h-1v-3h-2v1h1v3h1v2h-1v1h-1v1h1v1h1v1h1v1h1v3h1v-4z" class="st23"/><path d="M85 64h-1v2h1v-1zM67 65h1v1h-1zM87 65h1v1h-1zM65 66h1v1h-1zM70 67v-1h-2v1h1zM85 66h1v1h-1zM88 66h1v1h-1zM64 67h1v1h-1zM67 67h-1v1h2v-1zM86 67h1v1h-1zM89 67h1v1h-1zM65 68h1v1h-1zM71 68v-1h-1v1h-2v1h-1v1h1v2h1v-1h1v-2h3v-1h-1zM82 68h1v1h-1zM90 68h1v1h-1z" class="st24"/><path d="M71 70h1v1h-1zM84 70v-1h-1v3h1v1h1v-2h-1zM69 72v1h-2v1h-2v1h-1v1h1v1h1v-2h2v-1h2v-1h1v-2h-1v1zM91 72v-1h-1v-2h-1v3h-1v2h1v1h1v-2h1zM92 75h-1v2h1v-1zM64 78v1h1v-2h-1zM62 81h1v1h-1zM61 83v1h1v-2h-1zM60 84h1v1h-1zM59 86h-1v1h2v-2h-1zM98 85v-1h-1v-1h-1v-2h-1v-1h-1v-1h-1v-2h-1v3h1v1h1v2h1v1h1v2h3v-1zM69 95h1v1h-1zM64 103v1h1v-2h-1z" class="st24"/><path d="M108 47v-1h-1v-1h-1v2h1zM108 47v1h2v-1h-1zM119 47v-1h-2v-1h-2v-1h-2v-1h-2v-1h-2v-1h-1v2h2v1h2v1h2v1h2v1h2v1h2v-1zM110 48v1h2v-1h-1z" class="st25"/><path d="M116 48v-1h-2v-1h-2v-1h-2v-1h-2v-1h-1v2h1v1h2v1h2v1h2v1h2v1h-2v1h2v1h2v-2h1v-1h-1v-1h-1z" class="st25"/><path d="M112 49v1h2v-1h-1z" class="st25"/><path d="M114 52v-1h-2v-1h-2v-1h-2v-1h-2v-1h-1v2h1v1h2v1h2v1h2v1h2v1h3v-1h-1v-1h-1zM61 55v-1h-2v1h1z" class="st25"/><path d="M112 54v-1h-2v-1h-2v-1h-2v-1h-1v-1h-1v2h1v1h2v1h2v1h2v1h2v1h3v-1h-2v-1h-1z" class="st25"/><path d="M111 56v-1h-2v-1h-2v-1h-2v-1h-1v-1h-1v2h1v1h2v1h2v1h1v1h2v1h2v1h1v-1h1v-1h-2v-1h-1z" class="st25"/><path d="M111 59v-1h-2v-1h-1v-1h-2v-1h-2v-1h-1v-1h-1v2h1v1h2v1h2v1h1v1h2v1h2v1h1v-2h-1z" class="st25"/><path d="M110 61v-1h-2v-1h-1v-1h-2v-1h-2v-1h-1v-1h-1v2h-1v1h2v1h2v1h2v1h2v1h2v1h2v-2h-1zM59 75V55h-1v21h1zM51 87h5v1h1v1h1v-2h-1v-2h-2v-1h-3v1h-2v1h-1v1h1zM66 86v1h-1v2h-1v1h-1v2h-1v1h-1v1h-1v1h2v1h1v-1h1v-1h1v-3h1v-2h1v-1h1v-2h-1zM100 86h-6v1h-1v1h-1v5h1v-3h1v-1h1v-1h6v-1h-1zM48 87h1v1h-1z" class="st25"/><path d="M98 89h-2v1h-1v1h-1v3h1v-1h1v-1h2v-1h1v-1h1v-1h-1zM94 95h1v1h-1zM63 98v2h1v-2h2v-2h-3v1zM93 97v1h-1v1h-1v2h1v-1h1v-1h1v-1h1v-1h-1zM90 98h-4v2h3v-1h2v-1zM61 100h-1v-1h-2v-1h-3v-2h-4v1h-1v-2h2v-1h-1v-1h-1v1h-3v-2h5v-1h-1v-1h2v1h2v-1h-1v-1h-1v-1h-3v1h-3v1h-1v2h-1v3h-1v4h1v3h1v1h2v1h5v-2h1v-1h1v-1h2v1h1v1h-1v3h1v-1h1v-1h1v-1h1v-1zM61 102h1v1h-1z" class="st25"/><path d="M85 65h1v1h-1zM83 66h1v1h-1zM63 67h1v1h-1zM69 67h1v1h-1zM71 67v1h2v-1h-1zM84 67h1v1h-1zM67 68h1v1h-1zM88 69v1h-1v4h1v-2h1v-4h-1zM82 69h1v1h-1zM86 69v-1h-1v2h2v-1zM91 70v-1h-1v2h1zM69 72h-1v-2h-2v-1h-2v1h1v1h1v1h-1v1h-2v-1h-1v5h-1v2h-1v1h-1v1h-1v2h-1v1h-1v1h1v1h2v-1h1v-1h1v-2h1v-1h1v-1h1v-3h1v-1h-1v-1h1v-1h2v-1h2zM83 72h1v1h-1zM84 73h1v1h-1zM88 74h1v1h-1zM92 78v-1h-1v-2h-1v4h1v1h1v-1zM94 81h-1v-1h-1v2h1v1h1v-1zM95 84v-1h-1v2h1v1h1v-2zM75 90h1v1h-1zM69 93h1v1h-1zM64 104h1v1h-1z" class="st26"/><path d="M76 89h1v1h-1zM73 91h-1v1h1v1h1v-1h1v-1h-1zM80 92v-1h-2v-1h-1v1h-1v1h3v1h2v-1zM71 93h1v1h-1zM81 93h1v1h-1zM82 94h1v1h-1zM87 100h-1v2h1v-1zM87 102v3h1v-3z" class="st27"/><path d="M84 74h1v1h-1zM61 76h-1v1h-1v1h-1v1h-1v1h-1v1h-1v1h-1v1h-1v1h2v1h1v-1h1v-1h1v-2h1v-1h1v-1h1v-2h1v-2h-1zM94 85v-2h-1v-1h-1v-2h-1v-1h-1v-4h-2v-1h-1v-4h-2v1h1v2h-1v1h1v2h2v3h1v2h1v2h1v3h1v2h1v-1h1v-1h1v-1zM73 90h1v1h-1zM71 91h1v1h-1zM69 92v1h2v-1h-1zM68 93h1v1h-1zM67 94h1v1h-1zM66 97v1h1v-2h-1zM64 101v1h1v-2h-1zM63 103v2h1v-3h-1zM64 105h1v1h-1z" class="st28"/><path d="M106 42h1v1h-1zM109 43h-1v1h2v-1zM59 45v-2h-2v2h1zM105 44h1v1h-1zM111 44h-1v1h2v-1zM107 45h1v1h-1zM113 45h-1v1h2v-1zM58 46v2h2v-2h-1zM104 46h1v1h-1zM110 47v-1h-2v1h1zM115 46h-1v1h2v-1zM107 47h-1v1h2v-1zM111 48h1v-1h-2v1zM117 47h-1v1h2v-1zM103 48h1v1h-1zM109 48h-1v1h2v-1zM113 49h1v-1h-2v1zM118 48h1v1h-1zM59 49v2h2v-2h-1zM105 49h1v1h-1zM111 49h-1v1h2v-1zM115 50h1v-1h-2v1zM102 50h1v1h-1zM107 50h-1v1h2v-1zM113 50h-1v1h2v-1zM104 51h1v1h-1zM109 51h-1v1h2v-1zM115 51h-1v1h2v-1zM101 52h1v1h-1zM106 52h-1v1h2v-1zM111 52h-1v1h2v-1zM116 52h1v1h-1zM103 53h1v1h-1zM108 53h-1v1h2v-1zM113 53h-1v1h2v-1zM58 54h1v1h-1zM100 54h1v1h-1zM105 54h-1v1h2v-1zM110 54h-1v1h2v-1zM114 54v1h2v-1h-1zM102 55h1v1h-1zM107 55h-1v1h2v-1zM112 55h-1v1h2v-1zM99 56h1v1h-1zM104 56h-1v1h2v-1zM108 56h1v1h-1zM113 56v1h2v-1h-1zM106 57h-1v1h2v-1zM110 57h-1v1h2v-1zM101 58h-1v1h2v-1zM107 58h1v1h-1zM112 58h-1v1h2v-1zM103 59h-1v1h2v-1zM109 59h-1v1h2v-1zM113 59h1v1h-1zM105 60h-1v1h2v-1zM111 60h-1v1h2v-1zM107 61h-1v1h2v-1zM112 61h1v1h-1zM109 62h-1v1h2v-1zM110 63v1h2v-1h-1zM58 75V55h-1v21h1zM60 75h1v-5h1v-2h-3v8h1zM83 75h-1v2h2v-1h-1zM58 76h1v1h-1zM67 85h-1v1h2v-1zM57 86h1v1h-1zM68 86h1v1h-1zM55 87h1v1h-1zM49 88h1v1h-1zM56 88h1v1h-1zM59 88v-1h-1v2h1zM57 89h1v1h-1zM66 89h1v1h-1zM95 89h1v1h-1zM101 89h-1v1h2v-1zM94 90h1v1h-1zM99 90h1v1h-1zM102 90h1v1h-1zM62 91h1v1h-1zM65 91h1v1h-1zM98 91h1v1h-1zM61 92h1v1h-1zM96 92v1h2v-1h-1zM100 93h1v-1h-2v1zM49 94h1v-1h3v1h2v-2h1v-3h-1v-1h-2v1h1v1h1v1h-2v-1h-2v1h1v1h-5v2h1zM60 93h1v1h-1zM95 93h1v1h-1zM59 94h1v1h-1zM94 94h1v1h-1zM99 94h1v1h-1zM51 95h-1v2h1v-1h2v-1h-1zM62 95h-2v3h1v1h2v-3h-1zM64 95h-1v1h3v-1h-1zM96 96h3v-1h-1v-1h-1v1h-2v1zM57 97h-2v1h3v-1zM88 98v-1h-2v1h1zM97 97h-2v1h-1v1h1v1h1v-1h2v-1h-1zM58 98h1v1h-1zM64 98v2h1v-1h1v-1h-1zM91 98h1v1h-1zM93 99h1v1h-1zM62 100v1h-1v1h1v1h-1v-1h-1v1h-1v1h-1v1h-1v-3h1v-1h-1v-1h-2v1h-1v1h-1v2h-5v-1h-2v-1h-1v-3h-1v-1h-1v2h1v3h1v3h1v1h2v1h1v1h2v-2h2v1h3v-1h4v-1h1v1h3v-1h-1v-4h1v-2h-1zM91 100v-1h-2v1h-2v1h2v1h3v-1h-1zM92 100h1v1h-1z" class="st29"/><path d="M75 91h1v1h-1zM76 92h1v1h-1zM73 93h1v1h-1zM77 93h1v1h-1zM71 94h1v1h-1zM75 94h1v1h-1zM68 95h1v1h-1zM72 95h1v1h-1zM69 96h1v1h-1zM67 97h1v1h-1zM72 97h-2v1h3v-1zM68 98v1h2v-1h-1zM73 98h1v1h-1zM71 99h1v1h-1zM67 100h1v1h-1zM69 100h1v1h-1zM72 100h1v1h-1zM68 101h1v1h-1zM70 101v1h2v-1h-1zM69 103h-1v1h-1v1h1v1h-1v1h1v1h-1v1h1v1h-1v1h1v2h1v-2h1v-1h-1v-1h1v-1h-1v-1h1v-1h-1v-1h1v-1h-1z" class="st30"/><path d="M74 93h1v1h-1zM72 94h1v1h-1zM76 94h1v1h-1zM73 95h1v1h-1zM70 96h1v1h-1zM75 96h1v1h-1zM70 98v-1h-2v1h1zM76 97h1v1h-1zM71 99h1v-1h-2v1zM68 99h1v1h-1zM72 99h1v1h-1zM74 99h1v1h-1zM65 101h1v1h-1zM67 101h1v1h-1zM73 101h1v1h-1zM66 103h-1v1h1v1h1v-3h-1zM70 102v-1h-1v1h-1v1h1v1h2v-1h-1zM71 102v1h2v-1h-1zM65 105h1v1h-1zM67 105h1v1h-1zM69 105h1v1h-1zM71 105h1v1h-1zM64 106h1v1h-1zM66 106h1v1h-1zM70 106h1v1h-1zM65 107h1v1h-1zM67 107h1v1h-1zM69 107h1v1h-1zM71 107h1v1h-1zM73 107h1v1h-1zM64 108h1v1h-1zM66 108h1v1h-1zM70 108h1v1h-1zM65 109h1v1h-1zM67 109h1v1h-1zM69 109h1v1h-1zM71 109h1v1h-1zM66 110h1v1h-1zM72 110h1v1h-1zM65 111h1v1h-1zM73 112v1h1v-2h-1zM66 112v1h2v-2h-1v1zM72 112v-1h-1v-1h-1v1h-1v2h1v-1h1v1h-1v1h1v1h1v-1h1v-1h-1z" class="st31"/><path d="M69 114h1v1h-1z" class="st31"/><path d="M76 93v-1h-2v1h1zM72 93h1v1h-1zM76 93h1v1h-1zM71 94h-2v1h1v1h1v-1zM74 94h-1v1h2v-1zM67 95h1v1h-1zM75 95h1v1h-1zM68 96h1v1h-1zM72 96h-1v1h2v-1zM76 96h1v1h-1zM73 97h1v1h-1zM75 97h1v1h-1zM78 97h1v1h-1zM67 98h1v1h-1zM74 98h1v1h-1zM77 99h1v-1h-2v1zM70 99h1v1h-1zM75 100v1h1v-2h-1zM79 99h-1v1h2v-1zM65 100h1v1h-1zM68 100h1v1h-1zM71 100h1v1h-1zM74 100v-1h-1v2h1zM77 100h1v1h-1zM66 101h1v1h-1zM72 101h1v1h-1zM76 101h1v1h-1zM78 101h1v1h-1zM65 102h1v1h-1zM70 102h1v1h-1zM77 102h1v1h-1zM67 104h1v-2h-1v1zM78 103h1v1h-1zM65 104h1v1h-1zM72 105v-1h1v-1h-2v1h-1v2h1v-1z" class="st32"/><path d="M77 105h-1v-1h1v-1h-1v-1h-1v-1h-1v1h-1v1h1v1h1v1h-1v1h-1v-1h-1v1h-1v1h1v1h-1v1h1v1h1v1h1v2h1v-1h1v1h1v-1h1v1h1v-2h-1v-1h-1v1h-1v-1h1v-1h-1v-1h1v-1h-1v-1h1v1h1v-1h1v-1h-1v-1h-1v1zm-4 2h1v1h-1v-1zM66 105h1v1h-1zM65 106h1v1h-1zM64 107h1v1h-1zM66 107h1v1h-1zM70 107h1v1h-1z" class="st32"/><path d="M78 107h1v1h-1zM65 108h1v1h-1zM77 108h1v1h-1zM66 109h1v1h-1zM70 109h1v1h-1zM78 109h1v1h-1zM65 110h1v1h-1zM71 110h1v1h-1zM66 111h1v1h-1zM73 111h-1v2h1v-1zM70 112h1v1h-1zM70 114v-1h-3v1h1v1h1v-1zM73 113h1v1h-1zM75 113h1v1h-1zM77 113h1v1h-1zM70 114h1v1h-1zM72 114h1v1h-1zM74 114h1v1h-1zM78 114h1v1h-1zM69 115h1v1h-1zM71 115h1v1h-1zM73 115h1v1h-1zM75 115h1v1h-1zM77 115h1v1h-1z" class="st32"/><path d="M83 65h1v1h-1zM88 65h1v1h-1zM84 66h1v1h-1zM87 66h1v1h-1zM89 66h1v1h-1zM85 67h1v1h-1zM88 67h1v1h-1zM90 67h1v1h-1zM86 68h1v1h-1zM89 68h1v1h-1zM69 71h1v1h-1zM72 72h1v-2h1v-2h-1v1h-3v2h1v-1h1v1h-1v2h1zM70 73h1v1h-1zM92 73v-5h-1v5h-1v2h2v-1zM70 75v-1h-2v1h1zM93 75h-1v2h1v-1zM67 76h1v-1h-2v2h1zM94 77h-1v2h1v-1zM66 78v-1h-1v2h1zM64 79h1v1h-1zM94 79h1v1h-1zM63 81v1h1v-2h-1zM95 80h1v1h-1zM97 81h-1v2h1v-1zM62 83v1h1v-2h-1zM97 83h1v1h-1zM61 84h1v1h-1zM98 84h1v1h-1zM60 86v1h1v-2h-1zM99 85h1v1h-1zM59 87h1v1h-1zM75 93h1v1h-1zM71 95h1v1h-1zM75 96v-1h-1v1h-1v1h1v1h1v-1zM78 96v-2h-1v1h-1v1h1v2h1v-1zM83 97h1v1h-1zM72 98h1v1h-1zM75 98h1v1h-1zM78 98h1v1h-1zM81 98h1v1h-1zM84 98h1v1h-1zM69 99h1v1h-1zM80 99h1v1h-1zM83 99h1v1h-1zM67 101v-1h1v-1h-1v-1h-1v1h-1v1h1v1zM70 100h1v1h-1zM74 100h1v1h-1zM77 100h1v-1h-2v2h1zM79 101h1v-1h-2v1zM84 100h1v1h-1zM75 101h1v1h-1zM77 101h1v1h-1zM80 101h1v1h-1zM83 101h1v1h-1zM76 102h1v1h-1zM78 102v1h2v-1h-1zM84 102h1v1h-1zM73 103v1h-1v1h1v1h1v-1h1v-1h-1v-1zM77 103h1v1h-1zM80 103h1v1h-1zM83 103h1v1h-1zM85 103h1v1h-1zM76 104h1v1h-1zM79 104h-1v1h2v-1zM84 104h1v1h-1zM80 105h1v1h-1zM83 105h1v1h-1zM85 105h1v1h-1zM76 106h1v1h-1zM79 106h-1v1h2v-1zM84 106h1v1h-1zM77 107h1v1h-1zM80 107h1v1h-1zM83 107h1v1h-1zM85 107h1v1h-1zM76 108h1v1h-1zM79 108h1v1h-1zM84 108h1v1h-1zM77 109h1v1h-1zM80 109h1v1h-1zM83 109h1v1h-1zM76 110h1v1h-1zM79 110h1v1h-1zM84 110h1v1h-1zM80 111h1v1h-1zM83 112v1h1v-2h-1zM75 112h1v1h-1zM77 112h1v1h-1zM74 113h1v1h-1zM81 113h-1v-1h-1v1h-1v1h1v1h3v-1h-1zM82 113h1v1h-1zM67 114h1v1h-1zM73 114h1v1h-1zM78 115v-1h-1v-1h-1v1h-1v1h1v1h1v-1zM68 115h1v1h-1zM70 115h1v1h-1zM72 115h1v1h-1zM74 115h1v1h-1zM78 115h1v1h-1zM69 116h1v1h-1zM71 116h1v1h-1zM73 116h1v1h-1zM75 116h1v1h-1zM77 116h1v1h-1z" class="st33"/><path d="M80 96v-1h-1v-3h-2v1h1v4h1v-1zM80 96h1v1h-1zM84 97h1v1h-1zM80 98v-1h-1v2h2v-1zM84 99h1v1h-1zM79 101h1v1h-1zM84 101h1v1h-1zM79 103h1v1h-1zM84 103h1v1h-1zM85 104h1v1h-1zM79 105h1v1h-1zM84 105h1v1h-1zM85 106h1v1h-1zM79 107h1v1h-1zM84 107h1v1h-1zM78 108h1v1h-1zM79 109h1v1h-1z" class="st34"/><path d="M83 109h1v-1h-1v-1h1v-1h-1v-1h1v-1h-1v-1h1v-1h-1v-1h1v-1h-1v-1h1v-1h-1v-1h-2v1h1v1h-1v1h-1v1h1v1h-1v1h1v1h-1v1h2v1h-2v1h2v1h-2v1h2v1h-2v1h2v1h1v-1h1v-1h-1zM84 109v1h2v-2h-1v1zM78 110h1v1h-1zM79 111h1v1h-1zM84 113h1v-2h-1v1zM83 113h1v1h-1zM82 114h1v1h-1zM79 115v1h2v-1h-1zM70 116h1v1h-1zM72 116h1v1h-1zM74 116h1v1h-1zM76 116h1v1h-1zM78 116h1v1h-1z" class="st34"/><path d="M79 96h1v1h-1z" class="st35"/><path d="M84 96v-1h-2v-1h-1v-1h-2v2h1v1h1v1h4v-1zM80 97h1v1h-1zM86 102v-5h-1v6h1v7h1v-8zM81 105h1v1h-1zM81 107h1v1h-1zM81 109h1v1h-1zM85 111v2h1v-3h-1zM81 112h-1v1h1v1h1v-1h1v-1h-1v-1h-1zM84 113h1v1h-1zM83 114h1v1h-1zM81 115v1h2v-1h-1zM79 116v1h2v-1h-1zM77 117h-6v1h8v-1h-1z" class="st35"/><path d="M107 42h1v1h-1zM106 44h1v1h-1zM105 46h1v1h-1zM120 47h1v1h-1zM104 48h1v1h-1zM119 49v1h1v-2h-1zM103 50h1v1h-1zM118 51v1h1v-2h-1zM102 52h1v1h-1zM117 53v1h1v-2h-1zM91 55v-1h-2v1h1zM101 54h1v1h-1zM116 55v1h1v-2h-1zM63 56h26v-1H61v1h1zM91 57v11h1V55h-1v1zM100 56h1v1h-1zM115 57v1h1v-2h-1zM114 59v1h1v-2h-1zM60 59h1v1h-1zM62 59h1v1h-1zM64 59h1v1h-1zM66 59h1v1h-1zM68 59h1v1h-1zM70 59h1v1h-1zM72 59h1v1h-1zM74 59h1v1h-1zM76 59h1v1h-1zM78 59h1v1h-1zM80 59h1v1h-1zM82 59h1v1h-1zM84 59h1v1h-1zM86 59h1v1h-1zM113 61v1h1v-2h-1zM61 61h1v1h-1zM63 61h1v1h-1zM65 61h1v1h-1zM67 61h1v1h-1zM69 61h1v1h-1zM71 61h1v1h-1zM73 61h1v1h-1zM75 61h1v1h-1zM77 61h1v1h-1zM79 61h1v1h-1zM81 61h1v1h-1zM83 61h1v1h-1zM85 61h1v1h-1zM87 61h1v1h-1zM112 63v1h1v-2h-1zM62 63h1v1h-1zM64 63h1v1h-1zM66 63h1v1h-1zM68 63h1v1h-1zM70 63h1v1h-1zM72 63h1v1h-1zM74 63h1v1h-1zM76 63h1v1h-1zM78 63h1v1h-1zM80 63h1v1h-1zM82 63h1v1h-1zM84 63h1v1h-1zM86 63h1v1h-1zM83 68h1v1h-1zM83 73h-1v2h1v-1zM57 76h1v1h-1z" class="st36"/><path d="M80 78h6v-1h-1v-2h-2v1h1v1h-3v-8h-7v1h-1v2h-1v1h-1v1h-1v1h-1v2h-1v-1h-1v1h-1v1h14zm-4-1h-3v-1h4v1h-1zM51 88h4v-1h-6v1h1zM48 88h1v1h-1zM55 88h1v1h-1zM59 88h1v1h-1zM72 88h-1v-1h-1v-1h-1v1h-1v1h-1v2h-1v2h1v-1h1v-2h1v-1h1v1h1v2h2v-2h-1zM81 88h1v1h-1zM97 89h4v-1h-6v1h1zM58 89h1v1h-1zM94 89h1v1h-1zM56 91v1h1v-1h1v-1h-1v-1h-1v1zM55 93v1h1v-2h-1zM65 93v1h-1v1h2v-3h-1zM85 92h1v-1h-1v-1h-2v1h-1v-1h-1v-1h-1v1h-1v1h1v1h2v1h1v1h1v-1h1zM98 92h1v1h-1zM94 93v-3h-1v4h1zM97 93h-1v1h-1v1h2v-1h1v-1z" class="st36"/><path d="M53 94v-1h-2v1h1v1h1v1h2v1h3v1h1v1h2v-1h-1v-3h-1v1h-3v-1h-1v-1h-1zM98 94h1v1h-1zM66 95h1v1h-1zM88 97v-1h-3v1h2zM95 97h1v-1h-3v1h1z" class="st36"/><path d="M104 96h-1v-1h1v-2h-1v-2h-1v-1h-2v1h-1v1h2v1h-2v1h1v1h-1v1h-1v1h5v1h2v-1h-1zM89 98h4v-1h-5v1zM62 100h1v-1h-2v1zM97 99h-1v1h-1v-1h-1v1h-1v1h-1v1h-3v-1h-2v1h1v1h3v1h2v-1h2v-1h1v-1h1v-1h2v-1h-1zM45 104v-1h-1v-3h-1v4h1v2h1v-1zM63 105h1v1h-1zM45 106h1v1h-1zM56 115v-1h-1v-1h-1v-1h1v1h5v-1h-2v-1h-1v-1h-1v-1h1v1h3v1h1v1h2v-1h1v-1h1v-1h-1v-2h-3v-1h-1v1h-4v1h-3v-1h-2v2h-2v-1h-1v-1h-2v2h1v1h1v1h2v1h1v1h1v1h1v1h2v1h2v-1zM58 116h-1v1h2v-1zM62 116h1v1h-1zM61 117h-2v1h1v1h1v-1zM66 119v-1h-1v-1h-2v1h1v1h1zM69 121v-1h-2v-1h-1v1h-2v-1h-3v1h2v1h4v1h4v-1h-1z" class="st36"/><path d="M63 44h1v1h-1zM63 46v-1h-1v2h1zM63 49v1h1v-3h-1v1zM65 51h1v-1h-2v1zM91 54h1v1h-1zM92 57v18h1V55h-1v1zM62 58h28v-1H60v1h1zM61 59h1v1h-1zM63 59h1v1h-1zM65 59h1v1h-1zM67 59h1v1h-1zM69 59h1v1h-1zM71 59h1v1h-1zM73 59h1v1h-1zM75 59h1v1h-1zM77 59h1v1h-1zM79 59h1v1h-1zM81 59h1v1h-1zM83 59h1v1h-1zM85 59h1v1h-1zM90 59h-3v1h3zM60 61h1v1h-1zM62 61h1v1h-1zM64 61h1v1h-1zM66 61h1v1h-1zM68 61h1v1h-1zM70 61h1v1h-1zM72 61h1v1h-1zM74 61h1v1h-1zM76 61h1v1h-1zM78 61h1v1h-1zM80 61h1v1h-1zM82 61h1v1h-1zM84 61h1v1h-1zM86 61h1v1h-1zM88 61h1v1h-1zM62 64v-1h-2v1h1zM63 63h1v1h-1zM65 63h1v1h-1zM67 63h1v1h-1zM69 63h1v1h-1zM71 63h1v1h-1zM73 63h1v1h-1zM75 63h1v1h-1zM77 63h1v1h-1zM79 63h1v1h-1zM81 63h1v1h-1zM83 63h1v1h-1zM85 63h1v1h-1zM90 63h-3v1h3zM60 65h1v1h-1zM62 65h1v1h-1zM64 65h1v1h-1zM70 65h1v1h-1zM72 65h1v1h-1zM74 65h1v1h-1zM76 65h1v1h-1zM78 65h1v1h-1zM80 65h1v1h-1zM89 65h1v1h-1zM61 67h1v1h-1zM81 68h2v-1H73v1h1v1h7zM75 76h-2v1h4v-1h-1zM60 91v-2h-1v1h-1v1h1zM103 92h1v1h-1zM98 93h1v1h-1zM67 94h1v-1h1v-1h2v-3h-1v-1h-1v1h-1v2h-1v1h-1v3h1zM56 96h3v-1h-2v-2h1v-2h-1v1h-1v2h-1v1h1zM88 96v1h4v-2h-1v-1h-1v-1h-1v-1h-1v-1h-1v-1h-1v-1h-5v1h1v1h1v-1h2v1h1v1h-1v1h-1v2h1v1h2zM105 95v-2h-1v2h-1v1h1v1h1v1h-2v1h1v1h1v-1h1v-4zM99 97h-1v-1h-2v1h1v1h1v1h1v1h-2v1h-1v1h-1v1h-2v1h-2v-1h-3v2h-1v4h1v-1h2v1h1v4h2v-2h1v-4h1v-1h1v4h1v-1h1v-1h1v-3h1v-1h1v1h2v-4h-1v-1h-1v-1h-1v-1h-1z" class="st37"/><path d="M102 97h-2v1h3v-1zM60 99h1v1h-1zM61 100h1v1h-1zM56 109h1v1h-1zM54 112h1v1h-1zM90 114h1v1h-1zM68 118h1v1h3v-1h-1v-1h-2v-1h-1v-1h-1v-2h-1v-1h-1v-2h-1v1h-1v1h-2v-1h-1v-1h-3v1h1v1h2v1h-5v1h1v1h1v1h2v1h2v2h3v-1h-1v-1h-1v-1h1v1h2v1h1v1h1v-1zM64 119v1h2v-1h-1zM68 119h-1v1h2v-1zM70 120h-1v1h2v-1zM73 121h-2v1h4v-1h-1z" class="st37"/><path d="M61 58h1v1h-1zM63 58h1v1h-1zM65 58h1v1h-1zM67 58h1v1h-1zM69 58h1v1h-1zM71 58h1v1h-1zM73 58h1v1h-1zM75 58h1v1h-1zM77 58h1v1h-1zM79 58h1v1h-1zM81 58h1v1h-1zM83 58h1v1h-1zM85 58h1v1h-1zM87 58h1v1h-1zM87 60h1v1h-1zM88 62h1v1h-1zM61 65h1v1h-1zM63 65h1v1h-1zM71 65h1v1h-1zM73 65h1v1h-1zM75 65h1v1h-1zM77 65h1v1h-1zM81 65h1v1h-1zM80 66v-1h-1v2h1zM68 76v1h1v-2h-1zM82 76v-6h-1v7h1zM99 97h1v1h-1zM106 97v2h-1v1h-1v-1h-1v-1h-3v1h1v1h1v1h1v4h-2v-1h-1v1h-1v3h-1v1h-1v1h-1v-4h-1v1h-1v4h-1v2h-2v-4h-1v-1h-2v1h-1v1h-1v3h-1v1h-1v1h-1v1h-2v1h-2v1h-7v1h-3v1h2v1h4v1h4v-1h3v-1h3v-1h3v-1h3v-1h2v-2h2v-1h1v-1h2v-1h1v-1h2v-1h1v-1h1v-1h1v-1h1v-1h1v-3h1v-6h-1zm-15 18h-1v-1h1v1zM68 118h-1v1h2v-1z" class="st38"/></svg>