<?xml version="1.0" encoding="utf-8"?>
<!-- Generator: Adobe Illustrator 27.5.0, SVG Export Plug-In . SVG Version: 6.00 Build 0)  -->
<svg version="1.1" id="Layer_1" shape-rendering="crispEdges"
	 xmlns="http://www.w3.org/2000/svg" xmlns:xlink="http://www.w3.org/1999/xlink" x="0px" y="0px" viewBox="0 0 150 150"
	 style="enable-background:new 0 0 150 150;" xml:space="preserve">
<style type="text/css">
	.st0{fill:#24523B;}
	.st1{fill:#1A7A3E;}
	.st2{fill:#285CC4;}
	.st3{fill:#E3E6FF;}
	.st4{fill:#242234;}
	.st5{fill:#78C64F;}
	.st6{fill:#141013;}
	.st7{fill:#14A02E;}
	.st8{fill:#4A5462;}
	.st9{fill:#BB7547;}
	.st10{fill:#FFFC40;}
	.st11{fill:#71413B;}
	.st12{fill:#FFD541;}
	.st13{fill:#DBA463;}
	.st14{fill:#333941;}
	.st15{fill:#B9BFFB;}
	.st16{fill:#403353;}
	.st17{opacity:0.2549;enable-background:new    ;}
	.st18{fill:#FFC193;}
	.st19{fill:#2F4B76;}
	.st20{fill:#4277AB;}
	.st21{fill:#143464;}
	.st22{fill:#FB8C6F;}
	.st23{fill:#122020;}
	.st24{fill:#FA7A63;}
	.st25{fill:#FFFFFF;}
	.st26{fill:#FC9D7B;}
	.st27{fill:#F96958;}
	.st28{fill:#FDAF87;}
	.st29{fill:#DAE0EA;}
	.st30{fill:#F59E55;}
	.st31{fill:#DC7E42;}
	.st32{fill:#CF683B;}
	.st33{fill:#C25234;}
	.st34{fill:#B13D1E;}
	.st35{fill:#9B3013;}
	.st36{fill:#B3B9D1;}
	.st37{fill:#8B93AF;}
	.st38{fill:#6D758D;}
</style>
<g>
	<rect x="43" y="39" class="st0" width="1" height="1"/>
	<rect x="37" y="40" class="st0" width="1" height="1"/>
	<rect x="38" y="41" class="st0" width="1" height="1"/>
	<rect x="41" y="41" class="st0" width="1" height="1"/>
	<rect x="36" y="42" class="st0" width="1" height="1"/>
	<rect x="40" y="42" class="st0" width="1" height="1"/>
	<rect x="43" y="42" class="st0" width="1" height="1"/>
	<rect x="35" y="43" class="st0" width="1" height="1"/>
	<polygon class="st0" points="41,43 41,44 41,45 42,45 42,44 43,44 43,43 42,43 	"/>
	<rect x="35" y="46" class="st0" width="1" height="1"/>
	<rect x="36" y="47" class="st0" width="1" height="1"/>
	<polygon class="st0" points="40,48 39,48 38,48 38,49 39,49 39,50 40,50 40,49 41,49 41,48 	"/>
	<rect x="36" y="49" class="st0" width="1" height="1"/>
	<rect x="41" y="49" class="st0" width="1" height="1"/>
</g>
<g>
	<rect x="43" y="38" class="st1" width="1" height="1"/>
	<rect x="44" y="39" class="st1" width="1" height="1"/>
	<polygon class="st1" points="37,40 37,39 36,39 36,40 36,41 37,41 	"/>
	<polygon class="st1" points="43,41 43,42 44,42 44,41 44,40 43,40 	"/>
	<rect x="37" y="41" class="st1" width="1" height="1"/>
	<polygon class="st1" points="41,41 41,40 42,40 43,40 43,39 42,39 42,38 41,38 41,37 40,37 40,38 39,38 39,39 39,40 39,41 40,41 
		40,42 41,42 	"/>
	<polygon class="st1" points="41,42 41,43 42,43 43,43 43,42 42,42 	"/>
	<rect x="33" y="43" class="st1" width="1" height="1"/>
	<polygon class="st1" points="41,43 40,43 40,42 39,42 39,43 39,44 40,44 40,45 41,45 41,44 	"/>
	<polygon class="st1" points="35,45 35,46 36,46 36,47 37,47 37,46 37,45 36,45 36,44 35,44 34,44 34,45 	"/>
	<rect x="43" y="44" class="st1" width="1" height="1"/>
	<rect x="45" y="44" class="st1" width="1" height="1"/>
	<polygon class="st1" points="42,45 41,45 41,46 42,46 43,46 43,45 	"/>
	<rect x="40" y="46" class="st1" width="1" height="1"/>
	<rect x="43" y="46" class="st1" width="1" height="1"/>
	<rect x="38" y="47" class="st1" width="1" height="1"/>
	<rect x="44" y="47" class="st1" width="1" height="1"/>
	<polygon class="st1" points="36,48 35,48 35,49 35,50 36,50 36,49 37,49 37,50 37,51 38,51 38,50 38,49 38,48 37,48 	"/>
	<polygon class="st1" points="45,49 45,50 45,51 46,51 46,50 46,49 46,48 45,48 	"/>
	<polygon class="st1" points="40,50 40,51 40,52 41,52 41,51 42,51 42,50 41,50 	"/>
</g>
<g>
	<rect x="56" y="43" class="st2" width="1" height="1"/>
	<path class="st2" d="M93,43v-1h-1h-1h-1h-1h-1h-1h-1h-1h-1h-1h-1h-1h-1h-1h-1h-1h-1h-1h-1h-1h-1h-1h-1h-1h-1h-1h-1h-1h-1h-1h-1h-1
		h-1h-1h-1h-1v1h1h1v1v1h-1h-1v1v1v1h1v-1v-1h1h1v1v1h-1h-1v1v1v1v1h1h1h1h1h1h1h1h1h1h1h1h1h1h1h1h1h1h1h1h1h1h1h1h1h1h1h1h1h1h1h1
		h1h1h1v-1v-1v-1v-1h1v-1v-1v-1v-1h1v-1H93z M60,51h-1v-1v-1h1h1v1v1H60z M83,51h-1h-1h-1h-1h-1h-1h-1h-1h-1h-1h-1h-1h-1h-1h-1h-1
		h-1h-1h-1v-1h-1v-1v-1v-1h-1v-1v-1h1v-1h1h1v-1h1h1h1h1h1h1h1h1h1h1h1h1h1h1h1h1h1h1h1h1v1h1v1v1v1h-1v1v1v1h-1v1H83z"/>
</g>
<g>
	<polygon class="st3" points="67,44 68,44 69,44 70,44 71,44 72,44 73,44 74,44 75,44 76,44 77,44 78,44 79,44 80,44 81,44 82,44 
		83,44 84,44 85,44 85,43 84,43 83,43 82,43 81,43 80,43 79,43 78,43 77,43 76,43 75,43 74,43 73,43 72,43 71,43 70,43 69,43 68,43 
		67,43 66,43 65,43 65,44 66,44 	"/>
	<polygon class="st3" points="85,46 85,47 86,47 86,46 86,45 86,44 85,44 85,45 	"/>
	<polygon class="st3" points="65,46 65,45 65,44 64,44 64,45 64,46 64,47 65,47 	"/>
	<polygon class="st3" points="84,48 84,49 84,50 85,50 85,49 85,48 85,47 84,47 	"/>
	<polygon class="st3" points="66,48 66,47 65,47 65,48 65,49 65,50 66,50 66,49 	"/>
	<polygon class="st3" points="82,50 81,50 80,50 79,50 78,50 77,50 76,50 75,50 74,50 73,50 72,50 71,50 70,50 69,50 68,50 67,50 
		66,50 66,51 67,51 68,51 69,51 70,51 71,51 72,51 73,51 74,51 75,51 76,51 77,51 78,51 79,51 80,51 81,51 82,51 83,51 84,51 84,50 
		83,50 	"/>
	<polygon class="st3" points="90,52 89,52 88,52 87,52 86,52 85,52 84,52 83,52 82,52 81,52 80,52 79,52 78,52 77,52 76,52 75,52 
		74,52 73,52 72,52 71,52 70,52 69,52 68,52 67,52 66,52 65,52 64,52 63,52 62,52 61,52 60,52 59,52 59,53 60,53 61,53 62,53 63,53 
		64,53 65,53 66,53 67,53 68,53 69,53 70,53 71,53 72,53 73,53 74,53 75,53 76,53 77,53 78,53 79,53 80,53 81,53 82,53 83,53 84,53 
		85,53 86,53 87,53 88,53 89,53 90,53 91,53 91,52 	"/>
</g>
<g>
	<polygon class="st4" points="64,46 64,45 63,45 63,46 63,47 64,47 	"/>
	<path class="st4" d="M66,48v1v1h1h1h1h1h1h1h1h1h1h1h1h1h1h1h1h1h1h1v-1v-1v-1h1v-1v-1v-1h-1h-1h-1h-1h-1h-1h-1h-1h-1h-1h-1h-1h-1
		h-1h-1h-1h-1h-1h-1h-1v1v1v1h1V48z M72,45v1h-1v-1H72z M70,45v1h-1v-1H70z M68,45v1h-1v-1H68z"/>
	<polygon class="st4" points="64,49 64,50 65,50 65,49 65,48 65,47 64,47 64,48 	"/>
	<polygon class="st4" points="87,53 86,53 85,53 84,53 83,53 82,53 81,53 80,53 79,53 78,53 77,53 76,53 75,53 74,53 73,53 72,53 
		71,53 70,53 69,53 68,53 67,53 66,53 65,53 64,53 63,53 62,53 62,54 63,54 64,54 65,54 66,54 67,54 68,54 69,54 70,54 71,54 72,54 
		73,54 74,54 75,54 76,54 77,54 78,54 79,54 80,54 81,54 82,54 83,54 84,54 85,54 86,54 87,54 88,54 88,53 	"/>
</g>
<g>
	<rect x="34" y="32" class="st5" width="1" height="1"/>
	<polygon class="st5" points="33,39 34,39 35,39 35,38 34,38 34,37 34,36 33,36 33,35 34,35 34,34 34,33 33,33 33,34 32,34 32,35 
		32,36 32,37 32,38 33,38 	"/>
	<polygon class="st5" points="36,39 37,39 37,40 38,40 38,39 39,39 39,38 39,37 38,37 38,36 37,36 37,37 36,37 35,37 35,38 36,38 	
		"/>
	<rect x="35" y="42" class="st5" width="1" height="1"/>
	<rect x="34" y="43" class="st5" width="1" height="1"/>
	<polygon class="st5" points="34,45 33,45 33,44 32,44 32,43 33,43 34,43 34,42 33,42 32,42 31,42 31,43 30,43 30,44 31,44 31,45 
		32,45 32,46 33,46 34,46 	"/>
	<polygon class="st5" points="39,45 38,45 38,44 38,43 37,43 37,44 37,45 37,46 38,46 38,47 39,47 40,47 40,46 39,46 	"/>
	<rect x="35" y="47" class="st5" width="1" height="1"/>
	<rect x="34" y="48" class="st5" width="1" height="1"/>
	<polygon class="st5" points="44,49 44,48 43,48 43,47 43,46 42,46 42,47 42,48 42,49 43,49 43,50 44,50 45,50 45,49 	"/>
	<polygon class="st5" points="37,52 37,53 36,53 36,54 35,54 35,55 36,55 37,55 37,54 38,54 38,53 38,52 38,51 37,51 	"/>
</g>
<g>
	<polygon class="st6" points="94,42 94,41 93,41 92,41 91,41 90,41 89,41 88,41 87,41 86,41 85,41 84,41 83,41 82,41 81,41 80,41 
		79,41 78,41 77,41 76,41 75,41 74,41 73,41 72,41 71,41 70,41 69,41 68,41 67,41 66,41 65,41 64,41 63,41 62,41 61,41 60,41 59,41 
		58,41 57,41 56,41 56,42 55,42 55,43 55,44 56,44 56,43 57,43 57,42 58,42 59,42 60,42 61,42 62,42 63,42 64,42 65,42 66,42 67,42 
		68,42 69,42 70,42 71,42 72,42 73,42 74,42 75,42 76,42 77,42 78,42 79,42 80,42 81,42 82,42 83,42 84,42 85,42 86,42 87,42 88,42 
		89,42 90,42 91,42 92,42 93,42 93,43 94,43 94,44 95,44 95,43 95,42 	"/>
	<polygon class="st6" points="93,45 93,46 93,47 93,48 94,48 94,47 94,46 94,45 94,44 93,44 	"/>
	<polygon class="st6" points="57,46 57,45 57,44 56,44 56,45 56,46 56,47 56,48 57,48 57,47 	"/>
	<polygon class="st6" points="92,49 92,50 92,51 92,52 93,52 93,51 93,50 93,49 93,48 92,48 	"/>
	<polygon class="st6" points="58,50 58,49 58,48 57,48 57,49 57,50 57,51 57,52 58,52 58,51 	"/>
	<polygon class="st6" points="91,53 90,53 89,53 88,53 88,54 87,54 86,54 85,54 84,54 83,54 82,54 81,54 80,54 79,54 78,54 77,54 
		76,54 75,54 74,54 73,54 72,54 71,54 70,54 69,54 68,54 67,54 66,54 65,54 64,54 63,54 62,54 62,53 61,53 60,53 59,53 59,52 58,52 
		58,53 58,54 59,54 60,54 61,54 61,55 62,55 63,55 64,55 65,55 66,55 67,55 68,55 69,55 70,55 71,55 72,55 73,55 74,55 75,55 76,55 
		77,55 78,55 79,55 80,55 81,55 82,55 83,55 84,55 85,55 86,55 87,55 88,55 89,55 89,54 90,54 91,54 92,54 92,53 92,52 91,52 	"/>
</g>
<g>
	<polygon class="st7" points="34,37 34,38 35,38 35,37 36,37 37,37 37,36 37,35 36,35 36,34 36,33 35,33 34,33 34,34 34,35 33,35 
		33,36 34,36 	"/>
	<rect x="43" y="37" class="st7" width="1" height="1"/>
	<rect x="42" y="38" class="st7" width="1" height="1"/>
	<rect x="44" y="38" class="st7" width="1" height="1"/>
	<polygon class="st7" points="34,39 34,40 35,40 36,40 36,39 36,38 35,38 35,39 	"/>
	<rect x="45" y="39" class="st7" width="1" height="1"/>
	<rect x="42" y="40" class="st7" width="1" height="1"/>
	<rect x="44" y="40" class="st7" width="1" height="1"/>
	<rect x="32" y="43" class="st7" width="1" height="1"/>
	<polygon class="st7" points="36,44 36,45 37,45 37,44 37,43 36,43 	"/>
	<polygon class="st7" points="47,43 46,43 46,42 45,42 45,43 44,43 44,44 44,45 45,45 45,44 46,44 46,45 45,45 45,46 46,46 47,46 
		47,45 48,45 48,44 47,44 	"/>
	<rect x="33" y="44" class="st7" width="1" height="1"/>
	<rect x="34" y="45" class="st7" width="1" height="1"/>
	<polygon class="st7" points="40,45 40,44 39,44 39,43 39,42 38,42 37,42 37,43 38,43 38,44 38,45 39,45 39,46 40,46 41,46 41,45 	
		"/>
	<rect x="43" y="45" class="st7" width="1" height="1"/>
	<rect x="67" y="45" class="st7" width="1" height="1"/>
	<rect x="69" y="45" class="st7" width="1" height="1"/>
	<rect x="71" y="45" class="st7" width="1" height="1"/>
	<rect x="34" y="47" class="st7" width="1" height="1"/>
	<polygon class="st7" points="38,47 38,46 37,46 37,47 37,48 38,48 	"/>
	<polygon class="st7" points="42,47 42,46 41,46 41,47 40,47 39,47 39,48 40,48 41,48 41,49 42,49 42,48 	"/>
	<rect x="43" y="47" class="st7" width="1" height="1"/>
	<rect x="44" y="48" class="st7" width="1" height="1"/>
	<polygon class="st7" points="39,49 38,49 38,50 38,51 38,52 38,53 38,54 39,54 39,53 39,52 39,51 40,51 40,50 39,50 	"/>
	<rect x="40" y="49" class="st7" width="1" height="1"/>
	<rect x="42" y="49" class="st7" width="1" height="1"/>
	<polygon class="st7" points="43,50 43,51 44,51 45,51 45,50 44,50 	"/>
	<rect x="37" y="54" class="st7" width="1" height="1"/>
	<polygon class="st7" points="35,55 35,54 36,54 36,53 37,53 37,52 37,51 37,50 36,50 36,51 36,52 35,52 35,53 34,53 34,54 34,55 
		34,56 35,56 36,56 37,56 37,55 36,55 	"/>
</g>
<rect x="60" y="56" class="st8" width="1" height="1"/>
<rect x="61" y="56" class="st8" width="1" height="1"/>
<rect x="62" y="56" class="st8" width="1" height="1"/>
<rect x="63" y="56" class="st8" width="1" height="1"/>
<rect x="64" y="56" class="st8" width="1" height="1"/>
<rect x="65" y="56" class="st8" width="1" height="1"/>
<rect x="66" y="56" class="st8" width="1" height="1"/>
<rect x="67" y="56" class="st8" width="1" height="1"/>
<rect x="68" y="56" class="st8" width="1" height="1"/>
<rect x="69" y="56" class="st8" width="1" height="1"/>
<rect x="70" y="56" class="st8" width="1" height="1"/>
<rect x="71" y="56" class="st8" width="1" height="1"/>
<rect x="72" y="56" class="st8" width="1" height="1"/>
<rect x="73" y="56" class="st8" width="1" height="1"/>
<rect x="74" y="56" class="st8" width="1" height="1"/>
<rect x="75" y="56" class="st8" width="1" height="1"/>
<rect x="76" y="56" class="st8" width="1" height="1"/>
<rect x="77" y="56" class="st8" width="1" height="1"/>
<rect x="78" y="56" class="st8" width="1" height="1"/>
<rect x="79" y="56" class="st8" width="1" height="1"/>
<rect x="80" y="56" class="st8" width="1" height="1"/>
<rect x="81" y="56" class="st8" width="1" height="1"/>
<rect x="82" y="56" class="st8" width="1" height="1"/>
<rect x="83" y="56" class="st8" width="1" height="1"/>
<rect x="84" y="56" class="st8" width="1" height="1"/>
<rect x="85" y="56" class="st8" width="1" height="1"/>
<rect x="86" y="56" class="st8" width="1" height="1"/>
<rect x="87" y="56" class="st8" width="1" height="1"/>
<rect x="88" y="56" class="st8" width="1" height="1"/>
<rect x="89" y="56" class="st8" width="1" height="1"/>
<rect x="44" y="60" class="st9" width="1" height="1"/>
<rect x="47" y="60" class="st9" width="1" height="1"/>
<rect x="43" y="61" class="st9" width="1" height="1"/>
<rect x="48" y="61" class="st9" width="1" height="1"/>
<g>
	<polygon class="st10" points="45,59 44,59 44,60 45,60 46,60 46,59 	"/>
	<rect x="43" y="60" class="st10" width="1" height="1"/>
	<polygon class="st10" points="42,62 42,63 42,64 43,64 43,63 43,62 43,61 42,61 	"/>
</g>
<rect x="43" y="64" class="st9" width="1" height="1"/>
<rect x="48" y="64" class="st9" width="1" height="1"/>
<rect x="44" y="65" class="st9" width="1" height="1"/>
<polygon class="st11" points="48,62 48,61 47,61 47,60 46,60 45,60 45,61 44,61 44,62 43,62 43,63 43,64 44,64 44,65 45,65 45,66 
	46,66 47,66 47,65 48,65 48,64 49,64 49,63 49,62 "/>
<rect x="47" y="65" class="st9" width="1" height="1"/>
<rect x="49" y="65" class="st9" width="1" height="1"/>
<g>
	<polygon class="st12" points="47,59 46,59 46,60 47,60 48,60 48,59 	"/>
	<rect x="48" y="60" class="st12" width="1" height="1"/>
	<rect x="42" y="64" class="st12" width="1" height="1"/>
	<rect x="43" y="65" class="st12" width="1" height="1"/>
	<polygon class="st12" points="44,66 44,67 45,67 46,67 46,66 45,66 	"/>
</g>
<rect x="48" y="66" class="st9" width="1" height="1"/>
<rect x="50" y="66" class="st9" width="1" height="1"/>
<rect x="49" y="67" class="st9" width="1" height="1"/>
<g>
	<polygon class="st13" points="50,64 50,63 50,62 50,61 49,61 49,62 49,63 49,64 49,65 50,65 	"/>
	<rect x="48" y="65" class="st13" width="1" height="1"/>
	<polygon class="st13" points="46,66 46,67 47,67 48,67 48,66 47,66 	"/>
	<rect x="49" y="66" class="st13" width="1" height="1"/>
	<rect x="50" y="67" class="st13" width="1" height="1"/>
</g>
<g>
	<polygon class="st14" points="90,55 89,55 89,56 90,56 90,57 90,58 89,58 88,58 88,59 89,59 90,59 90,60 89,60 88,60 88,61 89,61 
		89,62 89,63 90,63 90,64 89,64 88,64 87,64 86,64 86,65 87,65 88,65 89,65 90,65 90,66 90,67 91,67 91,66 91,65 91,64 91,63 91,62 
		91,61 91,60 91,59 91,58 91,57 91,56 91,55 	"/>
	<rect x="62" y="58" class="st14" width="1" height="1"/>
	<rect x="64" y="58" class="st14" width="1" height="1"/>
	<rect x="66" y="58" class="st14" width="1" height="1"/>
	<rect x="68" y="58" class="st14" width="1" height="1"/>
	<rect x="70" y="58" class="st14" width="1" height="1"/>
	<rect x="72" y="58" class="st14" width="1" height="1"/>
	<rect x="74" y="58" class="st14" width="1" height="1"/>
	<rect x="76" y="58" class="st14" width="1" height="1"/>
	<rect x="78" y="58" class="st14" width="1" height="1"/>
	<rect x="80" y="58" class="st14" width="1" height="1"/>
	<rect x="82" y="58" class="st14" width="1" height="1"/>
	<rect x="84" y="58" class="st14" width="1" height="1"/>
	<rect x="86" y="58" class="st14" width="1" height="1"/>
	<polygon class="st14" points="87,63 88,63 88,62 87,62 86,62 85,62 84,62 83,62 82,62 81,62 80,62 79,62 78,62 77,62 76,62 75,62 
		74,62 73,62 72,62 71,62 70,62 69,62 68,62 67,62 66,62 65,62 64,62 63,62 62,62 61,62 60,62 60,61 61,61 62,61 63,61 64,61 65,61 
		66,61 67,61 68,61 69,61 70,61 71,61 72,61 73,61 74,61 75,61 76,61 77,61 78,61 79,61 80,61 81,61 82,61 83,61 84,61 85,61 86,61 
		87,61 87,60 86,60 85,60 84,60 83,60 82,60 81,60 80,60 79,60 78,60 77,60 76,60 75,60 74,60 73,60 72,60 71,60 70,60 69,60 68,60 
		67,60 66,60 65,60 64,60 63,60 62,60 61,60 60,60 60,59 61,59 61,58 60,58 60,57 60,56 61,56 61,55 60,55 59,55 59,56 59,57 59,58 
		59,59 59,60 59,61 59,62 59,63 59,64 59,65 59,66 59,67 59,68 60,68 61,68 61,67 62,67 63,67 63,66 62,66 61,66 60,66 60,65 61,65 
		62,65 63,65 64,65 65,65 66,65 67,65 68,65 69,65 70,65 71,65 72,65 73,65 74,65 75,65 76,65 77,65 78,65 79,65 80,65 81,65 82,65 
		83,65 84,65 84,64 83,64 82,64 81,64 80,64 79,64 78,64 77,64 76,64 75,64 74,64 73,64 72,64 71,64 70,64 69,64 68,64 67,64 66,64 
		65,64 64,64 63,64 62,64 61,64 60,64 60,63 61,63 62,63 63,63 64,63 65,63 66,63 67,63 68,63 69,63 70,63 71,63 72,63 73,63 74,63 
		75,63 76,63 77,63 78,63 79,63 80,63 81,63 82,63 83,63 84,63 85,63 86,63 	"/>
	<polygon class="st14" points="77,66 76,66 75,66 74,66 73,66 72,66 71,66 71,67 72,67 73,67 74,67 75,67 76,67 77,67 78,67 79,67 
		79,66 78,66 	"/>
	<polygon class="st14" points="80,66 80,67 81,67 82,67 82,66 81,66 	"/>
</g>
<polygon class="st15" points="106,70 106,69 105,69 105,68 104,68 104,69 104,70 104,71 104,72 104,73 104,74 104,75 105,75 105,76 
	106,76 106,77 107,77 107,76 107,75 107,74 107,73 107,72 107,71 107,70 "/>
<g>
	<rect x="107" y="41" class="st16" width="1" height="1"/>
	<rect x="106" y="43" class="st16" width="1" height="1"/>
	<rect x="105" y="45" class="st16" width="1" height="1"/>
	<rect x="104" y="47" class="st16" width="1" height="1"/>
	<rect x="103" y="49" class="st16" width="1" height="1"/>
	<rect x="102" y="51" class="st16" width="1" height="1"/>
	<rect x="101" y="53" class="st16" width="1" height="1"/>
	<rect x="100" y="55" class="st16" width="1" height="1"/>
	<polygon class="st16" points="105,68 105,67 104,67 103,67 103,68 104,68 	"/>
	<rect x="102" y="68" class="st16" width="1" height="1"/>
	<rect x="105" y="68" class="st16" width="1" height="1"/>
	<rect x="101" y="69" class="st16" width="1" height="1"/>
	<rect x="106" y="69" class="st16" width="1" height="1"/>
	<polygon class="st16" points="101,70 100,70 100,71 100,72 101,72 101,71 	"/>
	<rect x="107" y="70" class="st16" width="1" height="1"/>
	<rect x="108" y="71" class="st16" width="1" height="1"/>
	<rect x="101" y="72" class="st16" width="1" height="1"/>
	<rect x="109" y="72" class="st16" width="1" height="1"/>
	<rect x="102" y="73" class="st16" width="1" height="1"/>
	<rect x="110" y="73" class="st16" width="1" height="1"/>
	<rect x="103" y="74" class="st16" width="1" height="1"/>
	<polygon class="st16" points="111,74 111,75 111,76 112,76 112,75 112,74 	"/>
	<rect x="104" y="75" class="st16" width="1" height="1"/>
	<rect x="105" y="76" class="st16" width="1" height="1"/>
	<rect x="110" y="76" class="st16" width="1" height="1"/>
	<rect x="106" y="77" class="st16" width="1" height="1"/>
	<rect x="109" y="77" class="st16" width="1" height="1"/>
	<polygon class="st16" points="107,78 107,79 108,79 109,79 109,78 108,78 	"/>
</g>
<g>
	<polygon class="st17" points="110,41 109,41 109,42 110,42 111,42 111,41 	"/>
	<polygon class="st17" points="112,42 111,42 111,43 112,43 113,43 113,42 	"/>
	<polygon class="st17" points="114,43 113,43 113,44 114,44 115,44 115,43 	"/>
	<polygon class="st17" points="116,44 115,44 115,45 116,45 117,45 117,44 	"/>
	<polygon class="st17" points="118,45 117,45 117,46 118,46 119,46 119,45 	"/>
	<polygon class="st17" points="120,46 119,46 119,47 120,47 121,47 121,46 	"/>
	<polygon class="st17" points="121,47 121,48 120,48 120,49 120,50 119,50 119,51 119,52 118,52 118,53 118,54 117,54 117,55 
		117,56 116,56 116,57 116,58 115,58 115,59 115,60 114,60 114,61 114,62 113,62 113,63 113,64 114,64 114,63 115,63 115,62 115,61 
		116,61 116,60 116,59 117,59 117,58 117,57 118,57 118,56 118,55 119,55 119,54 119,53 120,53 120,52 120,51 121,51 121,50 121,49 
		122,49 122,48 122,47 	"/>
	<polygon class="st17" points="46,54 47,54 47,55 48,55 48,54 49,54 49,53 49,52 48,52 48,51 49,51 49,50 50,50 50,49 50,48 50,47 
		51,47 51,46 52,46 52,45 51,45 51,44 50,44 50,43 49,43 49,42 49,41 48,41 48,40 47,40 47,39 46,39 46,40 45,40 45,41 45,42 46,42 
		46,43 47,43 47,44 48,44 48,45 47,45 47,46 46,46 46,47 46,48 46,49 46,50 46,51 45,51 44,51 43,51 43,52 42,52 41,52 41,53 40,53 
		39,53 39,54 40,54 40,55 39,55 39,56 39,57 40,57 41,57 41,56 42,56 42,55 42,54 43,54 43,55 44,55 44,54 45,54 45,53 46,53 	"/>
	<rect x="48" y="59" class="st17" width="1" height="1"/>
	<polygon class="st17" points="52,66 52,65 52,64 52,63 52,62 52,61 51,61 51,60 50,60 49,60 49,61 50,61 50,62 50,63 50,64 50,65 
		50,66 51,66 51,67 51,68 51,69 52,69 53,69 53,68 53,67 52,67 	"/>
	<polygon class="st17" points="47,67 46,67 46,68 47,68 48,68 49,68 49,67 48,67 	"/>
	<rect x="105" y="67" class="st17" width="1" height="1"/>
	<rect x="106" y="68" class="st17" width="1" height="1"/>
	<rect x="107" y="69" class="st17" width="1" height="1"/>
	<rect x="108" y="70" class="st17" width="1" height="1"/>
	<rect x="109" y="71" class="st17" width="1" height="1"/>
	<rect x="110" y="72" class="st17" width="1" height="1"/>
	<rect x="111" y="73" class="st17" width="1" height="1"/>
	<polygon class="st17" points="112,75 112,76 113,76 113,75 113,74 112,74 	"/>
	<rect x="111" y="76" class="st17" width="1" height="1"/>
	<rect x="110" y="77" class="st17" width="1" height="1"/>
	<polygon class="st17" points="85,78 84,78 83,78 82,78 81,78 80,78 79,78 78,78 77,78 76,78 75,78 74,78 73,78 72,78 71,78 70,78 
		69,78 68,78 67,78 66,78 66,79 65,79 65,80 64,80 64,81 64,82 63,82 63,83 64,83 65,83 66,83 67,83 67,82 68,82 68,81 68,80 69,80 
		69,79 70,79 71,79 72,79 73,79 74,79 75,79 76,79 77,79 78,79 79,79 80,79 81,79 82,79 83,79 84,79 85,79 86,79 87,79 87,78 86,78 
			"/>
	<rect x="109" y="78" class="st17" width="1" height="1"/>
	<polygon class="st17" points="101,81 100,81 100,80 99,80 99,79 98,79 98,78 98,77 98,76 98,75 98,74 98,73 98,72 98,71 98,70 
		97,70 97,69 96,69 96,68 95,68 95,67 95,66 95,65 95,64 95,63 95,62 95,61 95,60 95,59 95,58 95,57 95,56 95,55 94,55 94,54 93,54 
		92,54 92,55 93,55 93,56 93,57 93,58 93,59 93,60 93,61 93,62 93,63 93,64 93,65 93,66 93,67 93,68 93,69 93,70 93,71 93,72 93,73 
		93,74 93,75 93,76 93,77 94,77 94,78 94,79 95,79 95,80 96,80 96,81 97,81 97,82 97,83 98,83 99,83 100,83 101,83 102,83 102,82 
		101,82 	"/>
</g>
<g>
	<rect x="85" y="64" class="st18" width="1" height="1"/>
	<polygon class="st18" points="67,65 66,65 65,65 65,66 66,66 66,67 67,67 68,67 68,66 67,66 	"/>
	<polygon class="st18" points="69,65 68,65 68,66 69,66 70,66 70,65 	"/>
	<polygon class="st18" points="83,65 82,65 82,66 82,67 83,67 83,66 	"/>
	<polygon class="st18" points="65,67 65,66 64,66 63,66 63,67 64,67 	"/>
	<rect x="70" y="66" class="st18" width="1" height="1"/>
	<polygon class="st18" points="86,67 87,67 87,66 87,65 86,65 86,66 	"/>
	<rect x="65" y="67" class="st18" width="1" height="1"/>
	<rect x="68" y="67" class="st18" width="1" height="1"/>
	<rect x="83" y="67" class="st18" width="1" height="1"/>
	<polygon class="st18" points="63,68 63,67 62,67 62,68 62,69 62,70 61,70 61,71 61,72 61,73 61,74 61,75 62,75 62,74 62,73 62,72 
		63,72 63,73 64,73 65,73 65,72 66,72 66,71 65,71 65,70 64,70 64,69 65,69 65,68 64,68 	"/>
	<polygon class="st18" points="82,68 81,68 81,69 81,70 82,70 82,69 	"/>
	<polygon class="st18" points="87,69 87,70 88,70 88,69 88,68 88,67 87,67 87,68 	"/>
	<polygon class="st18" points="66,70 67,70 67,69 67,68 66,68 66,69 	"/>
	<polygon class="st18" points="84,70 84,71 85,71 85,70 85,69 85,68 84,68 84,69 	"/>
	<polygon class="st18" points="83,71 83,70 82,70 82,71 82,72 82,73 83,73 83,72 	"/>
	<polygon class="st18" points="85,73 86,73 86,72 86,71 85,71 85,72 	"/>
	<polygon class="st18" points="83,74 83,75 84,75 84,74 84,73 83,73 	"/>
	<rect x="60" y="75" class="st18" width="1" height="1"/>
	<rect x="59" y="76" class="st18" width="1" height="1"/>
	<rect x="58" y="77" class="st18" width="1" height="1"/>
	<polygon class="st18" points="88,77 88,76 87,76 86,76 86,75 86,74 85,74 85,75 85,76 85,77 86,77 86,78 87,78 87,79 88,79 88,78 	
		"/>
	<rect x="57" y="78" class="st18" width="1" height="1"/>
	<rect x="56" y="79" class="st18" width="1" height="1"/>
	<rect x="55" y="80" class="st18" width="1" height="1"/>
	<rect x="54" y="81" class="st18" width="1" height="1"/>
	<polygon class="st18" points="90,81 89,81 89,80 89,79 88,79 88,80 88,81 88,82 89,82 89,83 90,83 90,82 	"/>
	<rect x="53" y="82" class="st18" width="1" height="1"/>
	<rect x="52" y="83" class="st18" width="1" height="1"/>
	<rect x="51" y="84" class="st18" width="1" height="1"/>
	<polygon class="st18" points="91,84 91,83 90,83 90,84 90,85 90,86 91,86 91,85 	"/>
	<polygon class="st18" points="91,86 91,87 91,88 92,88 92,87 92,86 	"/>
	<rect x="74" y="89" class="st18" width="1" height="1"/>
</g>
<g>
	<rect x="38" y="39" class="st19" width="1" height="1"/>
	<polygon class="st19" points="34,40 34,41 33,41 33,42 34,42 35,42 35,41 36,41 36,40 35,40 	"/>
	<polygon class="st19" points="33,46 32,46 32,47 32,48 33,48 33,47 	"/>
	<rect x="44" y="46" class="st19" width="1" height="1"/>
	<polygon class="st19" points="35,49 34,49 34,48 33,48 33,49 33,50 34,50 34,51 35,51 36,51 36,50 35,50 	"/>
	<rect x="42" y="50" class="st19" width="1" height="1"/>
	<rect x="39" y="51" class="st19" width="1" height="1"/>
	<polygon class="st19" points="103,69 102,69 102,70 101,70 101,71 101,72 102,72 102,73 103,73 103,74 104,74 104,73 104,72 
		104,71 104,70 104,69 104,68 103,68 	"/>
	<polygon class="st19" points="110,74 110,73 109,73 109,72 108,72 108,71 107,71 107,72 107,73 107,74 107,75 107,76 107,77 
		107,78 108,78 109,78 109,77 110,77 110,76 111,76 111,75 111,74 	"/>
	<polygon class="st19" points="64,84 64,83 63,83 63,84 62,84 62,85 62,86 63,86 63,87 62,87 62,88 63,88 63,89 64,89 64,88 64,87 
		65,87 65,86 66,86 66,85 66,84 65,84 	"/>
	<polygon class="st19" points="87,85 86,85 86,84 85,84 84,84 84,85 85,85 85,86 86,86 86,87 85,87 85,86 84,86 84,87 83,87 83,86 
		82,86 82,85 83,85 83,84 82,84 81,84 80,84 80,85 80,86 79,86 79,87 80,87 80,88 81,88 82,88 83,88 84,88 85,88 86,88 87,88 87,87 
		88,87 88,86 87,86 	"/>
	<rect x="61" y="88" class="st19" width="1" height="1"/>
	<rect x="62" y="89" class="st19" width="1" height="1"/>
	<polygon class="st19" points="61,91 60,91 60,92 61,92 62,92 62,91 62,90 61,90 	"/>
	<rect x="59" y="92" class="st19" width="1" height="1"/>
</g>
<g>
	<rect x="33" y="40" class="st20" width="1" height="1"/>
	<rect x="32" y="41" class="st20" width="1" height="1"/>
	<polygon class="st20" points="45,42 45,41 44,41 44,42 44,43 45,43 	"/>
	<polygon class="st20" points="32,46 32,45 31,45 31,46 31,47 31,48 32,48 32,47 	"/>
	<polygon class="st20" points="45,47 45,48 46,48 46,47 46,46 45,46 	"/>
	<polygon class="st20" points="33,48 32,48 32,49 32,50 33,50 33,49 	"/>
	<rect x="33" y="50" class="st20" width="1" height="1"/>
	<polygon class="st20" points="34,51 34,52 35,52 36,52 36,51 35,51 	"/>
	<polygon class="st20" points="41,51 41,52 42,52 43,52 43,51 42,51 	"/>
	<polygon class="st20" points="39,52 39,53 40,53 41,53 41,52 40,52 	"/>
	<polygon class="st20" points="62,85 61,85 61,86 61,87 60,87 60,88 60,89 60,90 60,91 61,91 61,90 62,90 62,89 61,89 61,88 62,88 
		62,87 63,87 63,86 62,86 	"/>
	<polygon class="st20" points="84,85 84,84 83,84 83,85 82,85 82,86 83,86 83,87 84,87 84,86 85,86 85,85 	"/>
	<rect x="85" y="86" class="st20" width="1" height="1"/>
	<rect x="62" y="88" class="st20" width="1" height="1"/>
	<polygon class="st20" points="58,91 58,92 58,93 57,93 57,94 57,95 58,95 59,95 59,94 60,94 60,93 59,93 59,92 60,92 60,91 59,91 	
		"/>
	<rect x="60" y="92" class="st20" width="1" height="1"/>
</g>
<g>
	<rect x="65" y="86" class="st21" width="1" height="1"/>
	<polygon class="st21" points="64,88 64,89 65,89 65,88 65,87 64,87 	"/>
	<polygon class="st21" points="74,87 74,86 73,86 73,85 72,85 72,84 71,84 70,84 69,84 69,83 68,83 67,83 66,83 65,83 64,83 64,84 
		65,84 66,84 66,85 67,85 68,85 68,86 69,86 70,86 70,87 71,87 71,88 72,88 72,89 73,89 73,90 74,90 74,89 75,89 75,88 74,88 	"/>
	<polygon class="st21" points="88,89 88,90 89,90 89,89 90,89 90,88 90,87 89,87 89,86 89,85 89,84 88,84 88,83 87,83 86,83 85,83 
		84,83 83,83 82,83 81,83 80,83 79,83 79,84 78,84 78,85 77,85 77,86 77,87 76,87 76,88 76,89 77,89 77,90 78,90 78,91 79,91 79,90 
		80,90 80,89 81,89 81,88 80,88 80,87 79,87 79,86 80,86 80,85 80,84 81,84 82,84 83,84 84,84 85,84 86,84 86,85 87,85 87,86 88,86 
		88,87 87,87 87,88 86,88 85,88 84,88 83,88 82,88 82,89 83,89 84,89 85,89 86,89 86,90 87,90 87,89 	"/>
	<rect x="63" y="89" class="st21" width="1" height="1"/>
	<rect x="62" y="90" class="st21" width="1" height="1"/>
	<rect x="87" y="90" class="st21" width="1" height="1"/>
	<rect x="88" y="91" class="st21" width="1" height="1"/>
	<rect x="89" y="92" class="st21" width="1" height="1"/>
	<rect x="90" y="93" class="st21" width="1" height="1"/>
	<rect x="91" y="94" class="st21" width="1" height="1"/>
</g>
<g>
	<rect x="75" y="89" class="st22" width="1" height="1"/>
	<rect x="74" y="90" class="st22" width="1" height="1"/>
	<rect x="76" y="90" class="st22" width="1" height="1"/>
	<polygon class="st22" points="71,92 71,93 72,93 73,93 73,92 72,92 	"/>
	<rect x="81" y="92" class="st22" width="1" height="1"/>
	<rect x="70" y="93" class="st22" width="1" height="1"/>
	<rect x="82" y="93" class="st22" width="1" height="1"/>
	<rect x="68" y="94" class="st22" width="1" height="1"/>
	<rect x="83" y="94" class="st22" width="1" height="1"/>
	<rect x="84" y="95" class="st22" width="1" height="1"/>
	<rect x="67" y="96" class="st22" width="1" height="1"/>
</g>
<g>
	<rect x="38" y="40" class="st23" width="1" height="1"/>
	<rect x="41" y="40" class="st23" width="1" height="1"/>
	<polygon class="st23" points="35,41 35,42 36,42 37,42 37,41 36,41 	"/>
	<rect x="39" y="41" class="st23" width="1" height="1"/>
	<rect x="42" y="41" class="st23" width="1" height="1"/>
	<rect x="34" y="42" class="st23" width="1" height="1"/>
	<rect x="43" y="43" class="st23" width="1" height="1"/>
	<rect x="42" y="44" class="st23" width="1" height="1"/>
	<rect x="44" y="45" class="st23" width="1" height="1"/>
	<polygon class="st23" points="33,46 33,47 33,48 34,48 34,47 35,47 35,46 34,46 	"/>
	<polygon class="st23" points="77,83 76,83 75,83 74,83 73,83 72,83 71,83 70,83 69,83 69,84 70,84 71,84 72,84 72,85 73,85 73,86 
		74,86 74,87 74,88 75,88 75,89 76,89 76,88 76,87 77,87 77,86 77,85 78,85 78,84 79,84 79,83 78,83 	"/>
	<rect x="87" y="89" class="st23" width="1" height="1"/>
	<polygon class="st23" points="92,93 92,92 92,91 92,90 92,89 92,88 91,88 91,87 91,86 90,86 90,85 90,84 90,83 89,83 88,83 88,84 
		89,84 89,85 89,86 89,87 90,87 90,88 90,89 89,89 89,90 88,90 88,91 89,91 89,92 90,92 90,93 91,93 91,94 92,94 92,95 92,96 92,97 
		93,97 93,96 93,95 93,94 93,93 	"/>
</g>
<g>
	<polygon class="st24" points="85,64 84,64 84,65 84,66 85,66 85,65 	"/>
	<rect x="67" y="65" class="st24" width="1" height="1"/>
	<rect x="87" y="65" class="st24" width="1" height="1"/>
	<rect x="65" y="66" class="st24" width="1" height="1"/>
	<polygon class="st24" points="70,67 70,66 69,66 68,66 68,67 69,67 	"/>
	<rect x="85" y="66" class="st24" width="1" height="1"/>
	<rect x="88" y="66" class="st24" width="1" height="1"/>
	<rect x="64" y="67" class="st24" width="1" height="1"/>
	<polygon class="st24" points="67,67 66,67 66,68 67,68 68,68 68,67 	"/>
	<rect x="86" y="67" class="st24" width="1" height="1"/>
	<rect x="89" y="67" class="st24" width="1" height="1"/>
	<rect x="65" y="68" class="st24" width="1" height="1"/>
	<polygon class="st24" points="71,68 71,67 70,67 70,68 69,68 68,68 68,69 67,69 67,70 68,70 68,71 68,72 69,72 69,71 70,71 70,70 
		70,69 71,69 72,69 73,69 73,68 72,68 	"/>
	<rect x="82" y="68" class="st24" width="1" height="1"/>
	<rect x="90" y="68" class="st24" width="1" height="1"/>
	<rect x="71" y="70" class="st24" width="1" height="1"/>
	<polygon class="st24" points="84,70 84,69 83,69 83,70 83,71 83,72 84,72 84,73 85,73 85,72 85,71 84,71 	"/>
	<polygon class="st24" points="69,72 69,73 68,73 67,73 67,74 66,74 65,74 65,75 64,75 64,76 65,76 65,77 66,77 66,76 66,75 67,75 
		68,75 68,74 69,74 70,74 70,73 71,73 71,72 71,71 70,71 70,72 	"/>
	<polygon class="st24" points="91,72 91,71 90,71 90,70 90,69 89,69 89,70 89,71 89,72 88,72 88,73 88,74 89,74 89,75 90,75 90,74 
		90,73 91,73 	"/>
	<polygon class="st24" points="92,75 91,75 91,76 91,77 92,77 92,76 	"/>
	<polygon class="st24" points="64,78 64,79 65,79 65,78 65,77 64,77 	"/>
	<rect x="62" y="81" class="st24" width="1" height="1"/>
	<polygon class="st24" points="61,83 61,84 62,84 62,83 62,82 61,82 	"/>
	<rect x="60" y="84" class="st24" width="1" height="1"/>
	<polygon class="st24" points="59,86 58,86 58,87 59,87 60,87 60,86 60,85 59,85 	"/>
	<polygon class="st24" points="98,85 98,84 97,84 97,83 96,83 96,82 96,81 95,81 95,80 94,80 94,79 93,79 93,78 93,77 92,77 92,78 
		92,79 92,80 93,80 93,81 94,81 94,82 94,83 95,83 95,84 96,84 96,85 96,86 97,86 98,86 99,86 99,85 	"/>
	<rect x="69" y="95" class="st24" width="1" height="1"/>
	<polygon class="st24" points="64,103 64,104 65,104 65,103 65,102 64,102 	"/>
</g>
<g>
	<polygon class="st25" points="108,47 108,46 107,46 107,45 106,45 106,46 106,47 107,47 	"/>
	<polygon class="st25" points="108,47 108,48 109,48 110,48 110,47 109,47 	"/>
	<polygon class="st25" points="119,47 119,46 118,46 117,46 117,45 116,45 115,45 115,44 114,44 113,44 113,43 112,43 111,43 
		111,42 110,42 109,42 109,41 108,41 108,42 108,43 109,43 110,43 110,44 111,44 112,44 112,45 113,45 114,45 114,46 115,46 116,46 
		116,47 117,47 118,47 118,48 119,48 120,48 120,47 	"/>
	<polygon class="st25" points="110,48 110,49 111,49 112,49 112,48 111,48 	"/>
	<polygon class="st25" points="116,48 116,47 115,47 114,47 114,46 113,46 112,46 112,45 111,45 110,45 110,44 109,44 108,44 
		108,43 107,43 107,44 107,45 108,45 108,46 109,46 110,46 110,47 111,47 112,47 112,48 113,48 114,48 114,49 115,49 116,49 116,50 
		115,50 114,50 114,51 115,51 116,51 116,52 117,52 118,52 118,51 118,50 119,50 119,49 118,49 118,48 117,48 	"/>
	<polygon class="st25" points="112,49 112,50 113,50 114,50 114,49 113,49 	"/>
	<polygon class="st25" points="114,52 114,51 113,51 112,51 112,50 111,50 110,50 110,49 109,49 108,49 108,48 107,48 106,48 
		106,47 105,47 105,48 105,49 106,49 106,50 107,50 108,50 108,51 109,51 110,51 110,52 111,52 112,52 112,53 113,53 114,53 114,54 
		115,54 116,54 117,54 117,53 116,53 116,52 115,52 	"/>
	<polygon class="st25" points="61,55 61,54 60,54 59,54 59,55 60,55 	"/>
	<polygon class="st25" points="112,54 112,53 111,53 110,53 110,52 109,52 108,52 108,51 107,51 106,51 106,50 105,50 105,49 
		104,49 104,50 104,51 105,51 105,52 106,52 107,52 107,53 108,53 109,53 109,54 110,54 111,54 111,55 112,55 113,55 113,56 114,56 
		115,56 116,56 116,55 115,55 114,55 114,54 113,54 	"/>
	<polygon class="st25" points="111,56 111,55 110,55 109,55 109,54 108,54 107,54 107,53 106,53 105,53 105,52 104,52 104,51 
		103,51 103,52 103,53 104,53 104,54 105,54 106,54 106,55 107,55 108,55 108,56 109,56 109,57 110,57 111,57 111,58 112,58 113,58 
		113,59 114,59 114,58 115,58 115,57 114,57 113,57 113,56 112,56 	"/>
	<polygon class="st25" points="111,59 111,58 110,58 109,58 109,57 108,57 108,56 107,56 106,56 106,55 105,55 104,55 104,54 
		103,54 103,53 102,53 102,54 102,55 103,55 103,56 104,56 105,56 105,57 106,57 107,57 107,58 108,58 108,59 109,59 110,59 110,60 
		111,60 112,60 112,61 113,61 113,60 113,59 112,59 	"/>
	<polygon class="st25" points="110,61 110,60 109,60 108,60 108,59 107,59 107,58 106,58 105,58 105,57 104,57 103,57 103,56 
		102,56 102,55 101,55 101,56 101,57 100,57 100,58 101,58 102,58 102,59 103,59 104,59 104,60 105,60 106,60 106,61 107,61 108,61 
		108,62 109,62 110,62 110,63 111,63 112,63 112,62 112,61 111,61 	"/>
	<polygon class="st25" points="59,75 59,74 59,73 59,72 59,71 59,70 59,69 59,68 59,67 59,66 59,65 59,64 59,63 59,62 59,61 59,60 
		59,59 59,58 59,57 59,56 59,55 58,55 58,56 58,57 58,58 58,59 58,60 58,61 58,62 58,63 58,64 58,65 58,66 58,67 58,68 58,69 58,70 
		58,71 58,72 58,73 58,74 58,75 58,76 59,76 	"/>
	<polygon class="st25" points="51,87 52,87 53,87 54,87 55,87 56,87 56,88 57,88 57,89 58,89 58,88 58,87 57,87 57,86 57,85 56,85 
		55,85 55,84 54,84 53,84 52,84 52,85 51,85 50,85 50,86 49,86 49,87 50,87 	"/>
	<polygon class="st25" points="66,86 66,87 65,87 65,88 65,89 64,89 64,90 63,90 63,91 63,92 62,92 62,93 61,93 61,94 60,94 60,95 
		61,95 62,95 62,96 63,96 63,95 64,95 64,94 65,94 65,93 65,92 65,91 66,91 66,90 66,89 67,89 67,88 68,88 68,87 68,86 67,86 	"/>
	<polygon class="st25" points="100,86 99,86 98,86 97,86 96,86 95,86 94,86 94,87 93,87 93,88 92,88 92,89 92,90 92,91 92,92 92,93 
		93,93 93,92 93,91 93,90 94,90 94,89 95,89 95,88 96,88 97,88 98,88 99,88 100,88 101,88 101,87 100,87 	"/>
	<rect x="48" y="87" class="st25" width="1" height="1"/>
	<polygon class="st25" points="98,89 97,89 96,89 96,90 95,90 95,91 94,91 94,92 94,93 94,94 95,94 95,93 96,93 96,92 97,92 98,92 
		98,91 99,91 99,90 100,90 100,89 99,89 	"/>
	<rect x="94" y="95" class="st25" width="1" height="1"/>
	<polygon class="st25" points="63,98 63,99 63,100 64,100 64,99 64,98 65,98 66,98 66,97 66,96 65,96 64,96 63,96 63,97 	"/>
	<polygon class="st25" points="93,97 93,98 92,98 92,99 91,99 91,100 91,101 92,101 92,100 93,100 93,99 94,99 94,98 95,98 95,97 
		94,97 	"/>
	<polygon class="st25" points="90,98 89,98 88,98 87,98 86,98 86,99 86,100 87,100 88,100 89,100 89,99 90,99 91,99 91,98 	"/>
	<polygon class="st25" points="61,100 60,100 60,99 59,99 58,99 58,98 57,98 56,98 55,98 55,97 55,96 54,96 53,96 52,96 51,96 
		51,97 50,97 50,96 50,95 51,95 52,95 52,94 51,94 51,93 50,93 50,94 49,94 48,94 47,94 47,93 47,92 48,92 49,92 50,92 51,92 52,92 
		52,91 51,91 51,90 52,90 53,90 53,91 54,91 55,91 55,90 54,90 54,89 53,89 53,88 52,88 51,88 50,88 50,89 49,89 48,89 47,89 47,90 
		46,90 46,91 46,92 45,92 45,93 45,94 45,95 44,95 44,96 44,97 44,98 44,99 45,99 45,100 45,101 45,102 46,102 46,103 47,103 
		48,103 48,104 49,104 50,104 51,104 52,104 53,104 53,103 53,102 54,102 54,101 55,101 55,100 56,100 57,100 57,101 58,101 58,102 
		57,102 57,103 57,104 57,105 58,105 58,104 59,104 59,103 60,103 60,102 61,102 61,101 	"/>
	<rect x="61" y="102" class="st25" width="1" height="1"/>
</g>
<g>
	<rect x="85" y="65" class="st26" width="1" height="1"/>
	<rect x="83" y="66" class="st26" width="1" height="1"/>
	<rect x="63" y="67" class="st26" width="1" height="1"/>
	<rect x="69" y="67" class="st26" width="1" height="1"/>
	<polygon class="st26" points="71,67 71,68 72,68 73,68 73,67 72,67 	"/>
	<rect x="84" y="67" class="st26" width="1" height="1"/>
	<rect x="67" y="68" class="st26" width="1" height="1"/>
	<polygon class="st26" points="88,69 88,70 87,70 87,71 87,72 87,73 87,74 88,74 88,73 88,72 89,72 89,71 89,70 89,69 89,68 88,68 	
		"/>
	<rect x="82" y="69" class="st26" width="1" height="1"/>
	<polygon class="st26" points="86,69 86,68 85,68 85,69 85,70 86,70 87,70 87,69 	"/>
	<polygon class="st26" points="91,70 91,69 90,69 90,70 90,71 91,71 	"/>
	<polygon class="st26" points="69,72 68,72 68,71 68,70 67,70 66,70 66,69 65,69 64,69 64,70 65,70 65,71 66,71 66,72 65,72 65,73 
		64,73 63,73 63,72 62,72 62,73 62,74 62,75 62,76 62,77 61,77 61,78 61,79 60,79 60,80 59,80 59,81 58,81 58,82 58,83 57,83 57,84 
		56,84 56,85 57,85 57,86 58,86 59,86 59,85 60,85 60,84 61,84 61,83 61,82 62,82 62,81 63,81 63,80 64,80 64,79 64,78 64,77 65,77 
		65,76 64,76 64,75 65,75 65,74 66,74 67,74 67,73 68,73 69,73 	"/>
	<rect x="83" y="72" class="st26" width="1" height="1"/>
	<rect x="84" y="73" class="st26" width="1" height="1"/>
	<rect x="88" y="74" class="st26" width="1" height="1"/>
	<polygon class="st26" points="92,78 92,77 91,77 91,76 91,75 90,75 90,76 90,77 90,78 90,79 91,79 91,80 92,80 92,79 	"/>
	<polygon class="st26" points="94,81 93,81 93,80 92,80 92,81 92,82 93,82 93,83 94,83 94,82 	"/>
	<polygon class="st26" points="95,84 95,83 94,83 94,84 94,85 95,85 95,86 96,86 96,85 96,84 	"/>
	<rect x="75" y="90" class="st26" width="1" height="1"/>
	<rect x="69" y="93" class="st26" width="1" height="1"/>
	<rect x="64" y="104" class="st26" width="1" height="1"/>
</g>
<g>
	<rect x="76" y="89" class="st27" width="1" height="1"/>
	<polygon class="st27" points="73,91 72,91 72,92 73,92 73,93 74,93 74,92 75,92 75,91 74,91 	"/>
	<polygon class="st27" points="80,92 80,91 79,91 78,91 78,90 77,90 77,91 76,91 76,92 77,92 78,92 79,92 79,93 80,93 81,93 81,92 	
		"/>
	<rect x="71" y="93" class="st27" width="1" height="1"/>
	<rect x="81" y="93" class="st27" width="1" height="1"/>
	<rect x="82" y="94" class="st27" width="1" height="1"/>
	<polygon class="st27" points="87,100 86,100 86,101 86,102 87,102 87,101 	"/>
	<polygon class="st27" points="87,102 87,103 87,104 87,105 88,105 88,104 88,103 88,102 	"/>
</g>
<g>
	<rect x="84" y="74" class="st28" width="1" height="1"/>
	<polygon class="st28" points="61,76 60,76 60,77 59,77 59,78 58,78 58,79 57,79 57,80 56,80 56,81 55,81 55,82 54,82 54,83 53,83 
		53,84 54,84 55,84 55,85 56,85 56,84 57,84 57,83 58,83 58,82 58,81 59,81 59,80 60,80 60,79 61,79 61,78 61,77 62,77 62,76 62,75 
		61,75 	"/>
	<polygon class="st28" points="94,85 94,84 94,83 93,83 93,82 92,82 92,81 92,80 91,80 91,79 90,79 90,78 90,77 90,76 90,75 89,75 
		88,75 88,74 87,74 87,73 87,72 87,71 87,70 86,70 85,70 85,71 86,71 86,72 86,73 85,73 85,74 86,74 86,75 86,76 87,76 88,76 88,77 
		88,78 88,79 89,79 89,80 89,81 90,81 90,82 90,83 91,83 91,84 91,85 91,86 92,86 92,87 92,88 93,88 93,87 94,87 94,86 95,86 95,85 
			"/>
	<rect x="73" y="90" class="st28" width="1" height="1"/>
	<rect x="71" y="91" class="st28" width="1" height="1"/>
	<polygon class="st28" points="69,92 69,93 70,93 71,93 71,92 70,92 	"/>
	<rect x="68" y="93" class="st28" width="1" height="1"/>
	<rect x="67" y="94" class="st28" width="1" height="1"/>
	<polygon class="st28" points="66,97 66,98 67,98 67,97 67,96 66,96 	"/>
	<polygon class="st28" points="64,101 64,102 65,102 65,101 65,100 64,100 	"/>
	<polygon class="st28" points="63,103 63,104 63,105 64,105 64,104 64,103 64,102 63,102 	"/>
	<rect x="64" y="105" class="st28" width="1" height="1"/>
</g>
<g>
	<rect x="106" y="42" class="st29" width="1" height="1"/>
	<polygon class="st29" points="109,43 108,43 108,44 109,44 110,44 110,43 	"/>
	<polygon class="st29" points="59,45 59,44 59,43 58,43 57,43 57,44 57,45 58,45 	"/>
	<rect x="105" y="44" class="st29" width="1" height="1"/>
	<polygon class="st29" points="111,44 110,44 110,45 111,45 112,45 112,44 	"/>
	<rect x="107" y="45" class="st29" width="1" height="1"/>
	<polygon class="st29" points="113,45 112,45 112,46 113,46 114,46 114,45 	"/>
	<polygon class="st29" points="58,46 58,47 58,48 59,48 60,48 60,47 60,46 59,46 	"/>
	<rect x="104" y="46" class="st29" width="1" height="1"/>
	<polygon class="st29" points="110,47 110,46 109,46 108,46 108,47 109,47 	"/>
	<polygon class="st29" points="115,46 114,46 114,47 115,47 116,47 116,46 	"/>
	<polygon class="st29" points="107,47 106,47 106,48 107,48 108,48 108,47 	"/>
	<polygon class="st29" points="111,48 112,48 112,47 111,47 110,47 110,48 	"/>
	<polygon class="st29" points="117,47 116,47 116,48 117,48 118,48 118,47 	"/>
	<rect x="103" y="48" class="st29" width="1" height="1"/>
	<polygon class="st29" points="109,48 108,48 108,49 109,49 110,49 110,48 	"/>
	<polygon class="st29" points="113,49 114,49 114,48 113,48 112,48 112,49 	"/>
	<rect x="118" y="48" class="st29" width="1" height="1"/>
	<polygon class="st29" points="59,49 59,50 59,51 60,51 61,51 61,50 61,49 60,49 	"/>
	<rect x="105" y="49" class="st29" width="1" height="1"/>
	<polygon class="st29" points="111,49 110,49 110,50 111,50 112,50 112,49 	"/>
	<polygon class="st29" points="115,50 116,50 116,49 115,49 114,49 114,50 	"/>
	<rect x="102" y="50" class="st29" width="1" height="1"/>
	<polygon class="st29" points="107,50 106,50 106,51 107,51 108,51 108,50 	"/>
	<polygon class="st29" points="113,50 112,50 112,51 113,51 114,51 114,50 	"/>
	<rect x="104" y="51" class="st29" width="1" height="1"/>
	<polygon class="st29" points="109,51 108,51 108,52 109,52 110,52 110,51 	"/>
	<polygon class="st29" points="115,51 114,51 114,52 115,52 116,52 116,51 	"/>
	<rect x="101" y="52" class="st29" width="1" height="1"/>
	<polygon class="st29" points="106,52 105,52 105,53 106,53 107,53 107,52 	"/>
	<polygon class="st29" points="111,52 110,52 110,53 111,53 112,53 112,52 	"/>
	<rect x="116" y="52" class="st29" width="1" height="1"/>
	<rect x="103" y="53" class="st29" width="1" height="1"/>
	<polygon class="st29" points="108,53 107,53 107,54 108,54 109,54 109,53 	"/>
	<polygon class="st29" points="113,53 112,53 112,54 113,54 114,54 114,53 	"/>
	<rect x="58" y="54" class="st29" width="1" height="1"/>
	<rect x="100" y="54" class="st29" width="1" height="1"/>
	<polygon class="st29" points="105,54 104,54 104,55 105,55 106,55 106,54 	"/>
	<polygon class="st29" points="110,54 109,54 109,55 110,55 111,55 111,54 	"/>
	<polygon class="st29" points="114,54 114,55 115,55 116,55 116,54 115,54 	"/>
	<rect x="102" y="55" class="st29" width="1" height="1"/>
	<polygon class="st29" points="107,55 106,55 106,56 107,56 108,56 108,55 	"/>
	<polygon class="st29" points="112,55 111,55 111,56 112,56 113,56 113,55 	"/>
	<rect x="99" y="56" class="st29" width="1" height="1"/>
	<polygon class="st29" points="104,56 103,56 103,57 104,57 105,57 105,56 	"/>
	<rect x="108" y="56" class="st29" width="1" height="1"/>
	<polygon class="st29" points="113,56 113,57 114,57 115,57 115,56 114,56 	"/>
	<polygon class="st29" points="106,57 105,57 105,58 106,58 107,58 107,57 	"/>
	<polygon class="st29" points="110,57 109,57 109,58 110,58 111,58 111,57 	"/>
	<polygon class="st29" points="101,58 100,58 100,59 101,59 102,59 102,58 	"/>
	<rect x="107" y="58" class="st29" width="1" height="1"/>
	<polygon class="st29" points="112,58 111,58 111,59 112,59 113,59 113,58 	"/>
	<polygon class="st29" points="103,59 102,59 102,60 103,60 104,60 104,59 	"/>
	<polygon class="st29" points="109,59 108,59 108,60 109,60 110,60 110,59 	"/>
	<rect x="113" y="59" class="st29" width="1" height="1"/>
	<polygon class="st29" points="105,60 104,60 104,61 105,61 106,61 106,60 	"/>
	<polygon class="st29" points="111,60 110,60 110,61 111,61 112,61 112,60 	"/>
	<polygon class="st29" points="107,61 106,61 106,62 107,62 108,62 108,61 	"/>
	<rect x="112" y="61" class="st29" width="1" height="1"/>
	<polygon class="st29" points="109,62 108,62 108,63 109,63 110,63 110,62 	"/>
	<polygon class="st29" points="110,63 110,64 111,64 112,64 112,63 111,63 	"/>
	<polygon class="st29" points="58,75 58,74 58,73 58,72 58,71 58,70 58,69 58,68 58,67 58,66 58,65 58,64 58,63 58,62 58,61 58,60 
		58,59 58,58 58,57 58,56 58,55 57,55 57,56 57,57 57,58 57,59 57,60 57,61 57,62 57,63 57,64 57,65 57,66 57,67 57,68 57,69 57,70 
		57,71 57,72 57,73 57,74 57,75 57,76 58,76 	"/>
	<polygon class="st29" points="60,75 61,75 61,74 61,73 61,72 61,71 61,70 62,70 62,69 62,68 61,68 60,68 59,68 59,69 59,70 59,71 
		59,72 59,73 59,74 59,75 59,76 60,76 	"/>
	<polygon class="st29" points="83,75 82,75 82,76 82,77 83,77 84,77 84,76 83,76 	"/>
	<rect x="58" y="76" class="st29" width="1" height="1"/>
	<polygon class="st29" points="67,85 66,85 66,86 67,86 68,86 68,85 	"/>
	<rect x="57" y="86" class="st29" width="1" height="1"/>
	<rect x="68" y="86" class="st29" width="1" height="1"/>
	<rect x="55" y="87" class="st29" width="1" height="1"/>
	<rect x="49" y="88" class="st29" width="1" height="1"/>
	<rect x="56" y="88" class="st29" width="1" height="1"/>
	<polygon class="st29" points="59,88 59,87 58,87 58,88 58,89 59,89 	"/>
	<rect x="57" y="89" class="st29" width="1" height="1"/>
	<rect x="66" y="89" class="st29" width="1" height="1"/>
	<rect x="95" y="89" class="st29" width="1" height="1"/>
	<polygon class="st29" points="101,89 100,89 100,90 101,90 102,90 102,89 	"/>
	<rect x="94" y="90" class="st29" width="1" height="1"/>
	<rect x="99" y="90" class="st29" width="1" height="1"/>
	<rect x="102" y="90" class="st29" width="1" height="1"/>
	<rect x="62" y="91" class="st29" width="1" height="1"/>
	<rect x="65" y="91" class="st29" width="1" height="1"/>
	<rect x="98" y="91" class="st29" width="1" height="1"/>
	<rect x="61" y="92" class="st29" width="1" height="1"/>
	<polygon class="st29" points="96,92 96,93 97,93 98,93 98,92 97,92 	"/>
	<polygon class="st29" points="100,93 101,93 101,92 100,92 99,92 99,93 	"/>
	<polygon class="st29" points="49,94 50,94 50,93 51,93 52,93 53,93 53,94 54,94 55,94 55,93 55,92 56,92 56,91 56,90 56,89 55,89 
		55,88 54,88 53,88 53,89 54,89 54,90 55,90 55,91 54,91 53,91 53,90 52,90 51,90 51,91 52,91 52,92 51,92 50,92 49,92 48,92 47,92 
		47,93 47,94 48,94 	"/>
	<rect x="60" y="93" class="st29" width="1" height="1"/>
	<rect x="95" y="93" class="st29" width="1" height="1"/>
	<rect x="59" y="94" class="st29" width="1" height="1"/>
	<rect x="94" y="94" class="st29" width="1" height="1"/>
	<rect x="99" y="94" class="st29" width="1" height="1"/>
	<polygon class="st29" points="51,95 50,95 50,96 50,97 51,97 51,96 52,96 53,96 53,95 52,95 	"/>
	<polygon class="st29" points="62,95 61,95 60,95 60,96 60,97 60,98 61,98 61,99 62,99 63,99 63,98 63,97 63,96 62,96 	"/>
	<polygon class="st29" points="64,95 63,95 63,96 64,96 65,96 66,96 66,95 65,95 	"/>
	<polygon class="st29" points="96,96 97,96 98,96 99,96 99,95 98,95 98,94 97,94 97,95 96,95 95,95 95,96 	"/>
	<polygon class="st29" points="57,97 56,97 55,97 55,98 56,98 57,98 58,98 58,97 	"/>
	<polygon class="st29" points="88,98 88,97 87,97 86,97 86,98 87,98 	"/>
	<polygon class="st29" points="97,97 96,97 95,97 95,98 94,98 94,99 95,99 95,100 96,100 96,99 97,99 98,99 98,98 97,98 	"/>
	<rect x="58" y="98" class="st29" width="1" height="1"/>
	<polygon class="st29" points="64,98 64,99 64,100 65,100 65,99 66,99 66,98 65,98 	"/>
	<rect x="91" y="98" class="st29" width="1" height="1"/>
	<rect x="93" y="99" class="st29" width="1" height="1"/>
	<polygon class="st29" points="62,100 62,101 61,101 61,102 62,102 62,103 61,103 61,102 60,102 60,103 59,103 59,104 58,104 
		58,105 57,105 57,104 57,103 57,102 58,102 58,101 57,101 57,100 56,100 55,100 55,101 54,101 54,102 53,102 53,103 53,104 52,104 
		51,104 50,104 49,104 48,104 48,103 47,103 46,103 46,102 45,102 45,101 45,100 45,99 44,99 44,98 43,98 43,99 43,100 44,100 
		44,101 44,102 44,103 45,103 45,104 45,105 45,106 46,106 46,107 47,107 48,107 48,108 49,108 49,109 50,109 51,109 51,108 51,107 
		52,107 53,107 53,108 54,108 55,108 56,108 56,107 57,107 58,107 59,107 60,107 60,106 61,106 61,107 62,107 63,107 64,107 64,106 
		63,106 63,105 63,104 63,103 63,102 64,102 64,101 64,100 63,100 	"/>
	<polygon class="st29" points="91,100 91,99 90,99 89,99 89,100 88,100 87,100 87,101 88,101 89,101 89,102 90,102 91,102 92,102 
		92,101 91,101 	"/>
	<rect x="92" y="100" class="st29" width="1" height="1"/>
</g>
<g>
	<rect x="75" y="91" class="st30" width="1" height="1"/>
	<rect x="76" y="92" class="st30" width="1" height="1"/>
	<rect x="73" y="93" class="st30" width="1" height="1"/>
	<rect x="77" y="93" class="st30" width="1" height="1"/>
	<rect x="71" y="94" class="st30" width="1" height="1"/>
	<rect x="75" y="94" class="st30" width="1" height="1"/>
	<rect x="68" y="95" class="st30" width="1" height="1"/>
	<rect x="72" y="95" class="st30" width="1" height="1"/>
	<rect x="69" y="96" class="st30" width="1" height="1"/>
	<rect x="67" y="97" class="st30" width="1" height="1"/>
	<polygon class="st30" points="72,97 71,97 70,97 70,98 71,98 72,98 73,98 73,97 	"/>
	<polygon class="st30" points="68,98 68,99 69,99 70,99 70,98 69,98 	"/>
	<rect x="73" y="98" class="st30" width="1" height="1"/>
	<rect x="71" y="99" class="st30" width="1" height="1"/>
	<rect x="67" y="100" class="st30" width="1" height="1"/>
	<rect x="69" y="100" class="st30" width="1" height="1"/>
	<rect x="72" y="100" class="st30" width="1" height="1"/>
	<rect x="68" y="101" class="st30" width="1" height="1"/>
	<polygon class="st30" points="70,101 70,102 71,102 72,102 72,101 71,101 	"/>
	<polygon class="st30" points="69,103 68,103 68,104 67,104 67,105 68,105 68,106 67,106 67,107 68,107 68,108 67,108 67,109 
		68,109 68,110 67,110 67,111 68,111 68,112 68,113 69,113 69,112 69,111 70,111 70,110 69,110 69,109 70,109 70,108 69,108 69,107 
		70,107 70,106 69,106 69,105 70,105 70,104 69,104 	"/>
</g>
<g>
	<rect x="74" y="93" class="st31" width="1" height="1"/>
	<rect x="72" y="94" class="st31" width="1" height="1"/>
	<rect x="76" y="94" class="st31" width="1" height="1"/>
	<rect x="73" y="95" class="st31" width="1" height="1"/>
	<rect x="70" y="96" class="st31" width="1" height="1"/>
	<rect x="75" y="96" class="st31" width="1" height="1"/>
	<polygon class="st31" points="70,98 70,97 69,97 68,97 68,98 69,98 	"/>
	<rect x="76" y="97" class="st31" width="1" height="1"/>
	<polygon class="st31" points="71,99 72,99 72,98 71,98 70,98 70,99 	"/>
	<rect x="68" y="99" class="st31" width="1" height="1"/>
	<rect x="72" y="99" class="st31" width="1" height="1"/>
	<rect x="74" y="99" class="st31" width="1" height="1"/>
	<rect x="65" y="101" class="st31" width="1" height="1"/>
	<rect x="67" y="101" class="st31" width="1" height="1"/>
	<rect x="73" y="101" class="st31" width="1" height="1"/>
	<polygon class="st31" points="66,103 65,103 65,104 66,104 66,105 67,105 67,104 67,103 67,102 66,102 	"/>
	<polygon class="st31" points="70,102 70,101 69,101 69,102 68,102 68,103 69,103 69,104 70,104 71,104 71,103 70,103 	"/>
	<polygon class="st31" points="71,102 71,103 72,103 73,103 73,102 72,102 	"/>
	<rect x="65" y="105" class="st31" width="1" height="1"/>
	<rect x="67" y="105" class="st31" width="1" height="1"/>
	<rect x="69" y="105" class="st31" width="1" height="1"/>
	<rect x="71" y="105" class="st31" width="1" height="1"/>
	<rect x="64" y="106" class="st31" width="1" height="1"/>
	<rect x="66" y="106" class="st31" width="1" height="1"/>
	<rect x="70" y="106" class="st31" width="1" height="1"/>
	<rect x="65" y="107" class="st31" width="1" height="1"/>
	<rect x="67" y="107" class="st31" width="1" height="1"/>
	<rect x="69" y="107" class="st31" width="1" height="1"/>
	<rect x="71" y="107" class="st31" width="1" height="1"/>
	<rect x="73" y="107" class="st31" width="1" height="1"/>
	<rect x="64" y="108" class="st31" width="1" height="1"/>
	<rect x="66" y="108" class="st31" width="1" height="1"/>
	<rect x="70" y="108" class="st31" width="1" height="1"/>
	<rect x="65" y="109" class="st31" width="1" height="1"/>
	<rect x="67" y="109" class="st31" width="1" height="1"/>
	<rect x="69" y="109" class="st31" width="1" height="1"/>
	<rect x="71" y="109" class="st31" width="1" height="1"/>
	<rect x="66" y="110" class="st31" width="1" height="1"/>
	<rect x="72" y="110" class="st31" width="1" height="1"/>
	<rect x="65" y="111" class="st31" width="1" height="1"/>
	<polygon class="st31" points="73,112 73,113 74,113 74,112 74,111 73,111 	"/>
	<polygon class="st31" points="66,112 66,113 67,113 68,113 68,112 68,111 67,111 67,112 	"/>
	<polygon class="st31" points="72,112 72,111 71,111 71,110 70,110 70,111 69,111 69,112 69,113 70,113 70,112 71,112 71,113 
		70,113 70,114 71,114 71,115 72,115 72,114 73,114 73,113 72,113 	"/>
	<rect x="69" y="114" class="st31" width="1" height="1"/>
</g>
<g>
	<polygon class="st32" points="76,93 76,92 75,92 74,92 74,93 75,93 	"/>
	<rect x="72" y="93" class="st32" width="1" height="1"/>
	<rect x="76" y="93" class="st32" width="1" height="1"/>
	<polygon class="st32" points="71,94 70,94 69,94 69,95 70,95 70,96 71,96 71,95 	"/>
	<polygon class="st32" points="74,94 73,94 73,95 74,95 75,95 75,94 	"/>
	<rect x="67" y="95" class="st32" width="1" height="1"/>
	<rect x="75" y="95" class="st32" width="1" height="1"/>
	<rect x="68" y="96" class="st32" width="1" height="1"/>
	<polygon class="st32" points="72,96 71,96 71,97 72,97 73,97 73,96 	"/>
	<rect x="76" y="96" class="st32" width="1" height="1"/>
	<rect x="73" y="97" class="st32" width="1" height="1"/>
	<rect x="75" y="97" class="st32" width="1" height="1"/>
	<rect x="78" y="97" class="st32" width="1" height="1"/>
	<rect x="67" y="98" class="st32" width="1" height="1"/>
	<rect x="74" y="98" class="st32" width="1" height="1"/>
	<polygon class="st32" points="77,99 78,99 78,98 77,98 76,98 76,99 	"/>
	<rect x="70" y="99" class="st32" width="1" height="1"/>
	<polygon class="st32" points="75,100 75,101 76,101 76,100 76,99 75,99 	"/>
	<polygon class="st32" points="79,99 78,99 78,100 79,100 80,100 80,99 	"/>
	<rect x="65" y="100" class="st32" width="1" height="1"/>
	<rect x="68" y="100" class="st32" width="1" height="1"/>
	<rect x="71" y="100" class="st32" width="1" height="1"/>
	<polygon class="st32" points="74,100 74,99 73,99 73,100 73,101 74,101 	"/>
	<rect x="77" y="100" class="st32" width="1" height="1"/>
	<rect x="66" y="101" class="st32" width="1" height="1"/>
	<rect x="72" y="101" class="st32" width="1" height="1"/>
	<rect x="76" y="101" class="st32" width="1" height="1"/>
	<rect x="78" y="101" class="st32" width="1" height="1"/>
	<rect x="65" y="102" class="st32" width="1" height="1"/>
	<rect x="70" y="102" class="st32" width="1" height="1"/>
	<rect x="77" y="102" class="st32" width="1" height="1"/>
	<polygon class="st32" points="67,104 68,104 68,103 68,102 67,102 67,103 	"/>
	<rect x="78" y="103" class="st32" width="1" height="1"/>
	<rect x="65" y="104" class="st32" width="1" height="1"/>
	<polygon class="st32" points="72,105 72,104 73,104 73,103 72,103 71,103 71,104 70,104 70,105 70,106 71,106 71,105 	"/>
	<path class="st32" d="M77,105h-1v-1h1v-1h-1v-1h-1v-1h-1v1h-1v1h1v1h1v1h-1v1h-1v-1h-1v1h-1v1h1v1h-1v1h1v1h1v1h1v1v1h1v-1h1v1h1
		v-1h1v1h1v-1v-1h-1v-1h-1v1h-1v-1h1v-1h-1v-1h1v-1h-1v-1h1v1h1v-1h1v-1h-1v-1h-1V105z M73,107h1v1h-1V107z"/>
	<rect x="66" y="105" class="st32" width="1" height="1"/>
	<rect x="65" y="106" class="st32" width="1" height="1"/>
	<rect x="64" y="107" class="st32" width="1" height="1"/>
	<rect x="66" y="107" class="st32" width="1" height="1"/>
	<rect x="70" y="107" class="st32" width="1" height="1"/>
	<rect x="78" y="107" class="st32" width="1" height="1"/>
	<rect x="65" y="108" class="st32" width="1" height="1"/>
	<rect x="77" y="108" class="st32" width="1" height="1"/>
	<rect x="66" y="109" class="st32" width="1" height="1"/>
	<rect x="70" y="109" class="st32" width="1" height="1"/>
	<rect x="78" y="109" class="st32" width="1" height="1"/>
	<rect x="65" y="110" class="st32" width="1" height="1"/>
	<rect x="71" y="110" class="st32" width="1" height="1"/>
	<rect x="66" y="111" class="st32" width="1" height="1"/>
	<polygon class="st32" points="73,111 72,111 72,112 72,113 73,113 73,112 	"/>
	<rect x="70" y="112" class="st32" width="1" height="1"/>
	<polygon class="st32" points="70,114 70,113 69,113 68,113 67,113 67,114 68,114 68,115 69,115 69,114 	"/>
	<rect x="73" y="113" class="st32" width="1" height="1"/>
	<rect x="75" y="113" class="st32" width="1" height="1"/>
	<rect x="77" y="113" class="st32" width="1" height="1"/>
	<rect x="70" y="114" class="st32" width="1" height="1"/>
	<rect x="72" y="114" class="st32" width="1" height="1"/>
	<rect x="74" y="114" class="st32" width="1" height="1"/>
	<rect x="78" y="114" class="st32" width="1" height="1"/>
	<rect x="69" y="115" class="st32" width="1" height="1"/>
	<rect x="71" y="115" class="st32" width="1" height="1"/>
	<rect x="73" y="115" class="st32" width="1" height="1"/>
	<rect x="75" y="115" class="st32" width="1" height="1"/>
	<rect x="77" y="115" class="st32" width="1" height="1"/>
</g>
<g>
	<rect x="83" y="65" class="st33" width="1" height="1"/>
	<rect x="88" y="65" class="st33" width="1" height="1"/>
	<rect x="84" y="66" class="st33" width="1" height="1"/>
	<rect x="87" y="66" class="st33" width="1" height="1"/>
	<rect x="89" y="66" class="st33" width="1" height="1"/>
	<rect x="85" y="67" class="st33" width="1" height="1"/>
	<rect x="88" y="67" class="st33" width="1" height="1"/>
	<rect x="90" y="67" class="st33" width="1" height="1"/>
	<rect x="86" y="68" class="st33" width="1" height="1"/>
	<rect x="89" y="68" class="st33" width="1" height="1"/>
	<rect x="69" y="71" class="st33" width="1" height="1"/>
	<polygon class="st33" points="72,72 73,72 73,71 73,70 74,70 74,69 74,68 73,68 73,69 72,69 71,69 70,69 70,70 70,71 71,71 71,70 
		72,70 72,71 71,71 71,72 71,73 72,73 	"/>
	<rect x="70" y="73" class="st33" width="1" height="1"/>
	<polygon class="st33" points="92,73 92,72 92,71 92,70 92,69 92,68 91,68 91,69 91,70 91,71 91,72 91,73 90,73 90,74 90,75 91,75 
		92,75 92,74 	"/>
	<polygon class="st33" points="70,75 70,74 69,74 68,74 68,75 69,75 	"/>
	<polygon class="st33" points="93,75 92,75 92,76 92,77 93,77 93,76 	"/>
	<polygon class="st33" points="67,76 68,76 68,75 67,75 66,75 66,76 66,77 67,77 	"/>
	<polygon class="st33" points="94,77 93,77 93,78 93,79 94,79 94,78 	"/>
	<polygon class="st33" points="66,78 66,77 65,77 65,78 65,79 66,79 	"/>
	<rect x="64" y="79" class="st33" width="1" height="1"/>
	<rect x="94" y="79" class="st33" width="1" height="1"/>
	<polygon class="st33" points="63,81 63,82 64,82 64,81 64,80 63,80 	"/>
	<rect x="95" y="80" class="st33" width="1" height="1"/>
	<polygon class="st33" points="97,81 96,81 96,82 96,83 97,83 97,82 	"/>
	<polygon class="st33" points="62,83 62,84 63,84 63,83 63,82 62,82 	"/>
	<rect x="97" y="83" class="st33" width="1" height="1"/>
	<rect x="61" y="84" class="st33" width="1" height="1"/>
	<rect x="98" y="84" class="st33" width="1" height="1"/>
	<polygon class="st33" points="60,86 60,87 61,87 61,86 61,85 60,85 	"/>
	<rect x="99" y="85" class="st33" width="1" height="1"/>
	<rect x="59" y="87" class="st33" width="1" height="1"/>
	<rect x="75" y="93" class="st33" width="1" height="1"/>
	<rect x="71" y="95" class="st33" width="1" height="1"/>
	<polygon class="st33" points="75,96 75,95 74,95 74,96 73,96 73,97 74,97 74,98 75,98 75,97 	"/>
	<polygon class="st33" points="78,96 78,95 78,94 77,94 77,95 76,95 76,96 77,96 77,97 77,98 78,98 78,97 	"/>
	<rect x="83" y="97" class="st33" width="1" height="1"/>
	<rect x="72" y="98" class="st33" width="1" height="1"/>
	<rect x="75" y="98" class="st33" width="1" height="1"/>
	<rect x="78" y="98" class="st33" width="1" height="1"/>
	<rect x="81" y="98" class="st33" width="1" height="1"/>
	<rect x="84" y="98" class="st33" width="1" height="1"/>
	<rect x="69" y="99" class="st33" width="1" height="1"/>
	<rect x="80" y="99" class="st33" width="1" height="1"/>
	<rect x="83" y="99" class="st33" width="1" height="1"/>
	<polygon class="st33" points="67,101 67,100 68,100 68,99 67,99 67,98 66,98 66,99 65,99 65,100 66,100 66,101 	"/>
	<rect x="70" y="100" class="st33" width="1" height="1"/>
	<rect x="74" y="100" class="st33" width="1" height="1"/>
	<polygon class="st33" points="77,100 78,100 78,99 77,99 76,99 76,100 76,101 77,101 	"/>
	<polygon class="st33" points="79,101 80,101 80,100 79,100 78,100 78,101 	"/>
	<rect x="84" y="100" class="st33" width="1" height="1"/>
	<rect x="75" y="101" class="st33" width="1" height="1"/>
	<rect x="77" y="101" class="st33" width="1" height="1"/>
	<rect x="80" y="101" class="st33" width="1" height="1"/>
	<rect x="83" y="101" class="st33" width="1" height="1"/>
	<rect x="76" y="102" class="st33" width="1" height="1"/>
	<polygon class="st33" points="78,102 78,103 79,103 80,103 80,102 79,102 	"/>
	<rect x="84" y="102" class="st33" width="1" height="1"/>
	<polygon class="st33" points="73,103 73,104 72,104 72,105 73,105 73,106 74,106 74,105 75,105 75,104 74,104 74,103 	"/>
	<rect x="77" y="103" class="st33" width="1" height="1"/>
	<rect x="80" y="103" class="st33" width="1" height="1"/>
	<rect x="83" y="103" class="st33" width="1" height="1"/>
	<rect x="85" y="103" class="st33" width="1" height="1"/>
	<rect x="76" y="104" class="st33" width="1" height="1"/>
	<polygon class="st33" points="79,104 78,104 78,105 79,105 80,105 80,104 	"/>
	<rect x="84" y="104" class="st33" width="1" height="1"/>
	<rect x="80" y="105" class="st33" width="1" height="1"/>
	<rect x="83" y="105" class="st33" width="1" height="1"/>
	<rect x="85" y="105" class="st33" width="1" height="1"/>
	<rect x="76" y="106" class="st33" width="1" height="1"/>
	<polygon class="st33" points="79,106 78,106 78,107 79,107 80,107 80,106 	"/>
	<rect x="84" y="106" class="st33" width="1" height="1"/>
	<rect x="77" y="107" class="st33" width="1" height="1"/>
	<rect x="80" y="107" class="st33" width="1" height="1"/>
	<rect x="83" y="107" class="st33" width="1" height="1"/>
	<rect x="85" y="107" class="st33" width="1" height="1"/>
	<rect x="76" y="108" class="st33" width="1" height="1"/>
	<rect x="79" y="108" class="st33" width="1" height="1"/>
	<rect x="84" y="108" class="st33" width="1" height="1"/>
	<rect x="77" y="109" class="st33" width="1" height="1"/>
	<rect x="80" y="109" class="st33" width="1" height="1"/>
	<rect x="83" y="109" class="st33" width="1" height="1"/>
	<rect x="76" y="110" class="st33" width="1" height="1"/>
	<rect x="79" y="110" class="st33" width="1" height="1"/>
	<rect x="84" y="110" class="st33" width="1" height="1"/>
	<rect x="80" y="111" class="st33" width="1" height="1"/>
	<polygon class="st33" points="83,112 83,113 84,113 84,112 84,111 83,111 	"/>
	<rect x="75" y="112" class="st33" width="1" height="1"/>
	<rect x="77" y="112" class="st33" width="1" height="1"/>
	<rect x="74" y="113" class="st33" width="1" height="1"/>
	<polygon class="st33" points="81,113 80,113 80,112 79,112 79,113 78,113 78,114 79,114 79,115 80,115 81,115 82,115 82,114 
		81,114 	"/>
	<rect x="82" y="113" class="st33" width="1" height="1"/>
	<rect x="67" y="114" class="st33" width="1" height="1"/>
	<rect x="73" y="114" class="st33" width="1" height="1"/>
	<polygon class="st33" points="78,115 78,114 77,114 77,113 76,113 76,114 75,114 75,115 76,115 76,116 77,116 77,115 	"/>
	<rect x="68" y="115" class="st33" width="1" height="1"/>
	<rect x="70" y="115" class="st33" width="1" height="1"/>
	<rect x="72" y="115" class="st33" width="1" height="1"/>
	<rect x="74" y="115" class="st33" width="1" height="1"/>
	<rect x="78" y="115" class="st33" width="1" height="1"/>
	<rect x="69" y="116" class="st33" width="1" height="1"/>
	<rect x="71" y="116" class="st33" width="1" height="1"/>
	<rect x="73" y="116" class="st33" width="1" height="1"/>
	<rect x="75" y="116" class="st33" width="1" height="1"/>
	<rect x="77" y="116" class="st33" width="1" height="1"/>
</g>
<g>
	<polygon class="st34" points="80,96 80,95 79,95 79,94 79,93 79,92 78,92 77,92 77,93 78,93 78,94 78,95 78,96 78,97 79,97 79,96 	
		"/>
	<rect x="80" y="96" class="st34" width="1" height="1"/>
	<rect x="84" y="97" class="st34" width="1" height="1"/>
	<polygon class="st34" points="80,98 80,97 79,97 79,98 79,99 80,99 81,99 81,98 	"/>
	<rect x="84" y="99" class="st34" width="1" height="1"/>
	<rect x="79" y="101" class="st34" width="1" height="1"/>
	<rect x="84" y="101" class="st34" width="1" height="1"/>
	<rect x="79" y="103" class="st34" width="1" height="1"/>
	<rect x="84" y="103" class="st34" width="1" height="1"/>
	<rect x="85" y="104" class="st34" width="1" height="1"/>
	<rect x="79" y="105" class="st34" width="1" height="1"/>
	<rect x="84" y="105" class="st34" width="1" height="1"/>
	<rect x="85" y="106" class="st34" width="1" height="1"/>
	<rect x="79" y="107" class="st34" width="1" height="1"/>
	<rect x="84" y="107" class="st34" width="1" height="1"/>
	<rect x="78" y="108" class="st34" width="1" height="1"/>
	<rect x="79" y="109" class="st34" width="1" height="1"/>
	<polygon class="st34" points="83,109 84,109 84,108 83,108 83,107 84,107 84,106 83,106 83,105 84,105 84,104 83,104 83,103 
		84,103 84,102 83,102 83,101 84,101 84,100 83,100 83,99 84,99 84,98 83,98 83,97 82,97 81,97 81,98 82,98 82,99 81,99 81,100 
		80,100 80,101 81,101 81,102 80,102 80,103 81,103 81,104 80,104 80,105 81,105 82,105 82,106 81,106 80,106 80,107 81,107 82,107 
		82,108 81,108 80,108 80,109 81,109 82,109 82,110 81,110 80,110 80,111 81,111 82,111 82,112 83,112 83,111 84,111 84,110 83,110 
			"/>
	<polygon class="st34" points="84,109 84,110 85,110 86,110 86,109 86,108 85,108 85,109 	"/>
	<rect x="78" y="110" class="st34" width="1" height="1"/>
	<rect x="79" y="111" class="st34" width="1" height="1"/>
	<polygon class="st34" points="84,113 85,113 85,112 85,111 84,111 84,112 	"/>
	<rect x="83" y="113" class="st34" width="1" height="1"/>
	<rect x="82" y="114" class="st34" width="1" height="1"/>
	<polygon class="st34" points="79,115 79,116 80,116 81,116 81,115 80,115 	"/>
	<rect x="70" y="116" class="st34" width="1" height="1"/>
	<rect x="72" y="116" class="st34" width="1" height="1"/>
	<rect x="74" y="116" class="st34" width="1" height="1"/>
	<rect x="76" y="116" class="st34" width="1" height="1"/>
	<rect x="78" y="116" class="st34" width="1" height="1"/>
</g>
<g>
	<rect x="79" y="96" class="st35" width="1" height="1"/>
	<polygon class="st35" points="84,96 84,95 83,95 82,95 82,94 81,94 81,93 80,93 79,93 79,94 79,95 80,95 80,96 81,96 81,97 82,97 
		83,97 84,97 85,97 85,96 	"/>
	<rect x="80" y="97" class="st35" width="1" height="1"/>
	<polygon class="st35" points="86,102 86,101 86,100 86,99 86,98 86,97 85,97 85,98 85,99 85,100 85,101 85,102 85,103 86,103 
		86,104 86,105 86,106 86,107 86,108 86,109 86,110 87,110 87,109 87,108 87,107 87,106 87,105 87,104 87,103 87,102 	"/>
	<rect x="81" y="105" class="st35" width="1" height="1"/>
	<rect x="81" y="107" class="st35" width="1" height="1"/>
	<rect x="81" y="109" class="st35" width="1" height="1"/>
	<polygon class="st35" points="85,111 85,112 85,113 86,113 86,112 86,111 86,110 85,110 	"/>
	<polygon class="st35" points="81,112 80,112 80,113 81,113 81,114 82,114 82,113 83,113 83,112 82,112 82,111 81,111 	"/>
	<rect x="84" y="113" class="st35" width="1" height="1"/>
	<rect x="83" y="114" class="st35" width="1" height="1"/>
	<polygon class="st35" points="81,115 81,116 82,116 83,116 83,115 82,115 	"/>
	<polygon class="st35" points="79,116 79,117 80,117 81,117 81,116 80,116 	"/>
	<polygon class="st35" points="77,117 76,117 75,117 74,117 73,117 72,117 71,117 71,118 72,118 73,118 74,118 75,118 76,118 
		77,118 78,118 79,118 79,117 78,117 	"/>
</g>
<g>
	<rect x="107" y="42" class="st36" width="1" height="1"/>
	<rect x="106" y="44" class="st36" width="1" height="1"/>
	<rect x="105" y="46" class="st36" width="1" height="1"/>
	<rect x="120" y="47" class="st36" width="1" height="1"/>
	<rect x="104" y="48" class="st36" width="1" height="1"/>
	<polygon class="st36" points="119,49 119,50 120,50 120,49 120,48 119,48 	"/>
	<rect x="103" y="50" class="st36" width="1" height="1"/>
	<polygon class="st36" points="118,51 118,52 119,52 119,51 119,50 118,50 	"/>
	<rect x="102" y="52" class="st36" width="1" height="1"/>
	<polygon class="st36" points="117,53 117,54 118,54 118,53 118,52 117,52 	"/>
	<polygon class="st36" points="91,55 91,54 90,54 89,54 89,55 90,55 	"/>
	<rect x="101" y="54" class="st36" width="1" height="1"/>
	<polygon class="st36" points="116,55 116,56 117,56 117,55 117,54 116,54 	"/>
	<polygon class="st36" points="63,56 64,56 65,56 66,56 67,56 68,56 69,56 70,56 71,56 72,56 73,56 74,56 75,56 76,56 77,56 78,56 
		79,56 80,56 81,56 82,56 83,56 84,56 85,56 86,56 87,56 88,56 89,56 89,55 88,55 87,55 86,55 85,55 84,55 83,55 82,55 81,55 80,55 
		79,55 78,55 77,55 76,55 75,55 74,55 73,55 72,55 71,55 70,55 69,55 68,55 67,55 66,55 65,55 64,55 63,55 62,55 61,55 61,56 62,56 
			"/>
	<polygon class="st36" points="91,57 91,58 91,59 91,60 91,61 91,62 91,63 91,64 91,65 91,66 91,67 91,68 92,68 92,67 92,66 92,65 
		92,64 92,63 92,62 92,61 92,60 92,59 92,58 92,57 92,56 92,55 91,55 91,56 	"/>
	<rect x="100" y="56" class="st36" width="1" height="1"/>
	<polygon class="st36" points="115,57 115,58 116,58 116,57 116,56 115,56 	"/>
	<polygon class="st36" points="114,59 114,60 115,60 115,59 115,58 114,58 	"/>
	<rect x="60" y="59" class="st36" width="1" height="1"/>
	<rect x="62" y="59" class="st36" width="1" height="1"/>
	<rect x="64" y="59" class="st36" width="1" height="1"/>
	<rect x="66" y="59" class="st36" width="1" height="1"/>
	<rect x="68" y="59" class="st36" width="1" height="1"/>
	<rect x="70" y="59" class="st36" width="1" height="1"/>
	<rect x="72" y="59" class="st36" width="1" height="1"/>
	<rect x="74" y="59" class="st36" width="1" height="1"/>
	<rect x="76" y="59" class="st36" width="1" height="1"/>
	<rect x="78" y="59" class="st36" width="1" height="1"/>
	<rect x="80" y="59" class="st36" width="1" height="1"/>
	<rect x="82" y="59" class="st36" width="1" height="1"/>
	<rect x="84" y="59" class="st36" width="1" height="1"/>
	<rect x="86" y="59" class="st36" width="1" height="1"/>
	<polygon class="st36" points="113,61 113,62 114,62 114,61 114,60 113,60 	"/>
	<rect x="61" y="61" class="st36" width="1" height="1"/>
	<rect x="63" y="61" class="st36" width="1" height="1"/>
	<rect x="65" y="61" class="st36" width="1" height="1"/>
	<rect x="67" y="61" class="st36" width="1" height="1"/>
	<rect x="69" y="61" class="st36" width="1" height="1"/>
	<rect x="71" y="61" class="st36" width="1" height="1"/>
	<rect x="73" y="61" class="st36" width="1" height="1"/>
	<rect x="75" y="61" class="st36" width="1" height="1"/>
	<rect x="77" y="61" class="st36" width="1" height="1"/>
	<rect x="79" y="61" class="st36" width="1" height="1"/>
	<rect x="81" y="61" class="st36" width="1" height="1"/>
	<rect x="83" y="61" class="st36" width="1" height="1"/>
	<rect x="85" y="61" class="st36" width="1" height="1"/>
	<rect x="87" y="61" class="st36" width="1" height="1"/>
	<polygon class="st36" points="112,63 112,64 113,64 113,63 113,62 112,62 	"/>
	<rect x="62" y="63" class="st36" width="1" height="1"/>
	<rect x="64" y="63" class="st36" width="1" height="1"/>
	<rect x="66" y="63" class="st36" width="1" height="1"/>
	<rect x="68" y="63" class="st36" width="1" height="1"/>
	<rect x="70" y="63" class="st36" width="1" height="1"/>
	<rect x="72" y="63" class="st36" width="1" height="1"/>
	<rect x="74" y="63" class="st36" width="1" height="1"/>
	<rect x="76" y="63" class="st36" width="1" height="1"/>
	<rect x="78" y="63" class="st36" width="1" height="1"/>
	<rect x="80" y="63" class="st36" width="1" height="1"/>
	<rect x="82" y="63" class="st36" width="1" height="1"/>
	<rect x="84" y="63" class="st36" width="1" height="1"/>
	<rect x="86" y="63" class="st36" width="1" height="1"/>
	<rect x="83" y="68" class="st36" width="1" height="1"/>
	<polygon class="st36" points="83,73 82,73 82,74 82,75 83,75 83,74 	"/>
	<rect x="57" y="76" class="st36" width="1" height="1"/>
	<path class="st36" d="M80,78h1h1h1h1h1h1v-1h-1v-1v-1h-1h-1v1h1v1h-1h-1h-1v-1v-1v-1v-1v-1v-1v-1v-1h-1h-1h-1h-1h-1h-1h-1v1h-1v1v1
		h-1v1h-1v1h-1v1h-1v1v1h-1v-1h-1v1h-1v1h1h1h1h1h1h1h1h1h1h1h1h1h1H80z M76,77h-1h-1h-1v-1h1h1h1h1v1H76z"/>
	<polygon class="st36" points="51,88 52,88 53,88 54,88 55,88 55,87 54,87 53,87 52,87 51,87 50,87 49,87 49,88 50,88 	"/>
	<rect x="48" y="88" class="st36" width="1" height="1"/>
	<rect x="55" y="88" class="st36" width="1" height="1"/>
	<rect x="59" y="88" class="st36" width="1" height="1"/>
	<polygon class="st36" points="72,88 71,88 71,87 70,87 70,86 69,86 69,87 68,87 68,88 67,88 67,89 67,90 66,90 66,91 66,92 67,92 
		67,91 68,91 68,90 68,89 69,89 69,88 70,88 70,89 71,89 71,90 71,91 72,91 73,91 73,90 73,89 72,89 	"/>
	<rect x="81" y="88" class="st36" width="1" height="1"/>
	<polygon class="st36" points="97,89 98,89 99,89 100,89 101,89 101,88 100,88 99,88 98,88 97,88 96,88 95,88 95,89 96,89 	"/>
	<rect x="58" y="89" class="st36" width="1" height="1"/>
	<rect x="94" y="89" class="st36" width="1" height="1"/>
	<polygon class="st36" points="56,91 56,92 57,92 57,91 58,91 58,90 57,90 57,89 56,89 56,90 	"/>
	<polygon class="st36" points="55,93 55,94 56,94 56,93 56,92 55,92 	"/>
	<polygon class="st36" points="65,93 65,94 64,94 64,95 65,95 66,95 66,94 66,93 66,92 65,92 	"/>
	<polygon class="st36" points="85,92 86,92 86,91 85,91 85,90 84,90 83,90 83,91 82,91 82,90 81,90 81,89 80,89 80,90 79,90 79,91 
		80,91 80,92 81,92 82,92 82,93 83,93 83,94 84,94 84,93 85,93 	"/>
	<rect x="98" y="92" class="st36" width="1" height="1"/>
	<polygon class="st36" points="94,93 94,92 94,91 94,90 93,90 93,91 93,92 93,93 93,94 94,94 	"/>
	<polygon class="st36" points="97,93 96,93 96,94 95,94 95,95 96,95 97,95 97,94 98,94 98,93 	"/>
	<polygon class="st36" points="53,94 53,93 52,93 51,93 51,94 52,94 52,95 53,95 53,96 54,96 55,96 55,97 56,97 57,97 58,97 58,98 
		59,98 59,99 60,99 61,99 61,98 60,98 60,97 60,96 60,95 59,95 59,96 58,96 57,96 56,96 56,95 55,95 55,94 54,94 	"/>
	<rect x="98" y="94" class="st36" width="1" height="1"/>
	<rect x="66" y="95" class="st36" width="1" height="1"/>
	<polygon class="st36" points="88,97 88,96 87,96 86,96 85,96 85,97 86,97 87,97 	"/>
	<polygon class="st36" points="95,97 96,97 96,96 95,96 94,96 93,96 93,97 94,97 	"/>
	<polygon class="st36" points="104,96 103,96 103,95 104,95 104,94 104,93 103,93 103,92 103,91 102,91 102,90 101,90 100,90 
		100,91 99,91 99,92 100,92 101,92 101,93 100,93 99,93 99,94 100,94 100,95 99,95 99,96 98,96 98,97 99,97 100,97 101,97 102,97 
		103,97 103,98 104,98 105,98 105,97 104,97 	"/>
	<polygon class="st36" points="89,98 90,98 91,98 92,98 93,98 93,97 92,97 91,97 90,97 89,97 88,97 88,98 	"/>
	<polygon class="st36" points="62,100 63,100 63,99 62,99 61,99 61,100 	"/>
	<polygon class="st36" points="97,99 96,99 96,100 95,100 95,99 94,99 94,100 93,100 93,101 92,101 92,102 91,102 90,102 89,102 
		89,101 88,101 87,101 87,102 88,102 88,103 89,103 90,103 91,103 91,104 92,104 93,104 93,103 94,103 95,103 95,102 96,102 96,101 
		97,101 97,100 98,100 99,100 99,99 98,99 	"/>
	<polygon class="st36" points="45,104 45,103 44,103 44,102 44,101 44,100 43,100 43,101 43,102 43,103 43,104 44,104 44,105 
		44,106 45,106 45,105 	"/>
	<rect x="63" y="105" class="st36" width="1" height="1"/>
	<rect x="45" y="106" class="st36" width="1" height="1"/>
	<polygon class="st36" points="56,115 56,114 55,114 55,113 54,113 54,112 55,112 55,113 56,113 57,113 58,113 59,113 60,113 
		60,112 59,112 58,112 58,111 57,111 57,110 56,110 56,109 57,109 57,110 58,110 59,110 60,110 60,111 61,111 61,112 62,112 63,112 
		63,111 64,111 64,110 65,110 65,109 64,109 64,108 64,107 63,107 62,107 61,107 61,106 60,106 60,107 59,107 58,107 57,107 56,107 
		56,108 55,108 54,108 53,108 53,107 52,107 51,107 51,108 51,109 50,109 49,109 49,108 48,108 48,107 47,107 46,107 46,108 46,109 
		47,109 47,110 48,110 48,111 49,111 50,111 50,112 51,112 51,113 52,113 52,114 53,114 53,115 54,115 55,115 55,116 56,116 57,116 
		57,115 	"/>
	<polygon class="st36" points="58,116 57,116 57,117 58,117 59,117 59,116 	"/>
	<rect x="62" y="116" class="st36" width="1" height="1"/>
	<polygon class="st36" points="61,117 60,117 59,117 59,118 60,118 60,119 61,119 61,118 	"/>
	<polygon class="st36" points="66,119 66,118 65,118 65,117 64,117 63,117 63,118 64,118 64,119 65,119 	"/>
	<polygon class="st36" points="69,121 69,120 68,120 67,120 67,119 66,119 66,120 65,120 64,120 64,119 63,119 62,119 61,119 
		61,120 62,120 63,120 63,121 64,121 65,121 66,121 67,121 67,122 68,122 69,122 70,122 71,122 71,121 70,121 	"/>
</g>
<g>
	<rect x="63" y="44" class="st37" width="1" height="1"/>
	<polygon class="st37" points="63,46 63,45 62,45 62,46 62,47 63,47 	"/>
	<polygon class="st37" points="63,49 63,50 64,50 64,49 64,48 64,47 63,47 63,48 	"/>
	<polygon class="st37" points="65,51 66,51 66,50 65,50 64,50 64,51 	"/>
	<rect x="91" y="54" class="st37" width="1" height="1"/>
	<polygon class="st37" points="92,57 92,58 92,59 92,60 92,61 92,62 92,63 92,64 92,65 92,66 92,67 92,68 92,69 92,70 92,71 92,72 
		92,73 92,74 92,75 93,75 93,74 93,73 93,72 93,71 93,70 93,69 93,68 93,67 93,66 93,65 93,64 93,63 93,62 93,61 93,60 93,59 93,58 
		93,57 93,56 93,55 92,55 92,56 	"/>
	<polygon class="st37" points="62,58 63,58 64,58 65,58 66,58 67,58 68,58 69,58 70,58 71,58 72,58 73,58 74,58 75,58 76,58 77,58 
		78,58 79,58 80,58 81,58 82,58 83,58 84,58 85,58 86,58 87,58 88,58 89,58 90,58 90,57 89,57 88,57 87,57 86,57 85,57 84,57 83,57 
		82,57 81,57 80,57 79,57 78,57 77,57 76,57 75,57 74,57 73,57 72,57 71,57 70,57 69,57 68,57 67,57 66,57 65,57 64,57 63,57 62,57 
		61,57 60,57 60,58 61,58 	"/>
	<rect x="61" y="59" class="st37" width="1" height="1"/>
	<rect x="63" y="59" class="st37" width="1" height="1"/>
	<rect x="65" y="59" class="st37" width="1" height="1"/>
	<rect x="67" y="59" class="st37" width="1" height="1"/>
	<rect x="69" y="59" class="st37" width="1" height="1"/>
	<rect x="71" y="59" class="st37" width="1" height="1"/>
	<rect x="73" y="59" class="st37" width="1" height="1"/>
	<rect x="75" y="59" class="st37" width="1" height="1"/>
	<rect x="77" y="59" class="st37" width="1" height="1"/>
	<rect x="79" y="59" class="st37" width="1" height="1"/>
	<rect x="81" y="59" class="st37" width="1" height="1"/>
	<rect x="83" y="59" class="st37" width="1" height="1"/>
	<rect x="85" y="59" class="st37" width="1" height="1"/>
	<polygon class="st37" points="90,59 89,59 88,59 87,59 87,60 88,60 89,60 90,60 	"/>
	<rect x="60" y="61" class="st37" width="1" height="1"/>
	<rect x="62" y="61" class="st37" width="1" height="1"/>
	<rect x="64" y="61" class="st37" width="1" height="1"/>
	<rect x="66" y="61" class="st37" width="1" height="1"/>
	<rect x="68" y="61" class="st37" width="1" height="1"/>
	<rect x="70" y="61" class="st37" width="1" height="1"/>
	<rect x="72" y="61" class="st37" width="1" height="1"/>
	<rect x="74" y="61" class="st37" width="1" height="1"/>
	<rect x="76" y="61" class="st37" width="1" height="1"/>
	<rect x="78" y="61" class="st37" width="1" height="1"/>
	<rect x="80" y="61" class="st37" width="1" height="1"/>
	<rect x="82" y="61" class="st37" width="1" height="1"/>
	<rect x="84" y="61" class="st37" width="1" height="1"/>
	<rect x="86" y="61" class="st37" width="1" height="1"/>
	<rect x="88" y="61" class="st37" width="1" height="1"/>
	<polygon class="st37" points="62,64 62,63 61,63 60,63 60,64 61,64 	"/>
	<rect x="63" y="63" class="st37" width="1" height="1"/>
	<rect x="65" y="63" class="st37" width="1" height="1"/>
	<rect x="67" y="63" class="st37" width="1" height="1"/>
	<rect x="69" y="63" class="st37" width="1" height="1"/>
	<rect x="71" y="63" class="st37" width="1" height="1"/>
	<rect x="73" y="63" class="st37" width="1" height="1"/>
	<rect x="75" y="63" class="st37" width="1" height="1"/>
	<rect x="77" y="63" class="st37" width="1" height="1"/>
	<rect x="79" y="63" class="st37" width="1" height="1"/>
	<rect x="81" y="63" class="st37" width="1" height="1"/>
	<rect x="83" y="63" class="st37" width="1" height="1"/>
	<rect x="85" y="63" class="st37" width="1" height="1"/>
	<polygon class="st37" points="90,63 89,63 88,63 87,63 87,64 88,64 89,64 90,64 	"/>
	<rect x="60" y="65" class="st37" width="1" height="1"/>
	<rect x="62" y="65" class="st37" width="1" height="1"/>
	<rect x="64" y="65" class="st37" width="1" height="1"/>
	<rect x="70" y="65" class="st37" width="1" height="1"/>
	<rect x="72" y="65" class="st37" width="1" height="1"/>
	<rect x="74" y="65" class="st37" width="1" height="1"/>
	<rect x="76" y="65" class="st37" width="1" height="1"/>
	<rect x="78" y="65" class="st37" width="1" height="1"/>
	<rect x="80" y="65" class="st37" width="1" height="1"/>
	<rect x="89" y="65" class="st37" width="1" height="1"/>
	<rect x="61" y="67" class="st37" width="1" height="1"/>
	<polygon class="st37" points="81,68 82,68 83,68 83,67 82,67 81,67 80,67 79,67 78,67 77,67 76,67 75,67 74,67 73,67 73,68 74,68 
		74,69 75,69 76,69 77,69 78,69 79,69 80,69 81,69 	"/>
	<polygon class="st37" points="75,76 74,76 73,76 73,77 74,77 75,77 76,77 77,77 77,76 76,76 	"/>
	<polygon class="st37" points="60,91 60,90 60,89 59,89 59,90 58,90 58,91 59,91 	"/>
	<rect x="103" y="92" class="st37" width="1" height="1"/>
	<rect x="98" y="93" class="st37" width="1" height="1"/>
	<polygon class="st37" points="67,94 68,94 68,93 69,93 69,92 70,92 71,92 71,91 71,90 71,89 70,89 70,88 69,88 69,89 68,89 68,90 
		68,91 67,91 67,92 66,92 66,93 66,94 66,95 67,95 	"/>
	<polygon class="st37" points="56,96 57,96 58,96 59,96 59,95 58,95 57,95 57,94 57,93 58,93 58,92 58,91 57,91 57,92 56,92 56,93 
		56,94 55,94 55,95 56,95 	"/>
	<polygon class="st37" points="88,96 88,97 89,97 90,97 91,97 92,97 92,96 92,95 91,95 91,94 90,94 90,93 89,93 89,92 88,92 88,91 
		87,91 87,90 86,90 86,89 85,89 84,89 83,89 82,89 81,89 81,90 82,90 82,91 83,91 83,90 84,90 85,90 85,91 86,91 86,92 85,92 85,93 
		84,93 84,94 84,95 85,95 85,96 86,96 87,96 	"/>
	<polygon class="st37" points="105,95 105,94 105,93 104,93 104,94 104,95 103,95 103,96 104,96 104,97 105,97 105,98 104,98 
		103,98 103,99 104,99 104,100 105,100 105,99 106,99 106,98 106,97 106,96 106,95 	"/>
	<polygon class="st37" points="99,97 98,97 98,96 97,96 96,96 96,97 97,97 97,98 98,98 98,99 99,99 99,100 98,100 97,100 97,101 
		96,101 96,102 95,102 95,103 94,103 93,103 93,104 92,104 91,104 91,103 90,103 89,103 88,103 88,104 88,105 87,105 87,106 87,107 
		87,108 87,109 88,109 88,108 89,108 90,108 90,109 91,109 91,110 91,111 91,112 91,113 92,113 93,113 93,112 93,111 94,111 94,110 
		94,109 94,108 94,107 95,107 95,106 96,106 96,107 96,108 96,109 96,110 97,110 97,109 98,109 98,108 99,108 99,107 99,106 99,105 
		100,105 100,104 101,104 101,105 102,105 103,105 103,104 103,103 103,102 103,101 102,101 102,100 101,100 101,99 100,99 100,98 
		99,98 	"/>
	<polygon class="st37" points="102,97 101,97 100,97 100,98 101,98 102,98 103,98 103,97 	"/>
	<rect x="60" y="99" class="st37" width="1" height="1"/>
	<rect x="61" y="100" class="st37" width="1" height="1"/>
	<rect x="56" y="109" class="st37" width="1" height="1"/>
	<rect x="54" y="112" class="st37" width="1" height="1"/>
	<rect x="90" y="114" class="st37" width="1" height="1"/>
	<polygon class="st37" points="68,118 69,118 69,119 70,119 71,119 72,119 72,118 71,118 71,117 70,117 69,117 69,116 68,116 
		68,115 67,115 67,114 67,113 66,113 66,112 65,112 65,111 65,110 64,110 64,111 63,111 63,112 62,112 61,112 61,111 60,111 60,110 
		59,110 58,110 57,110 57,111 58,111 58,112 59,112 60,112 60,113 59,113 58,113 57,113 56,113 55,113 55,114 56,114 56,115 57,115 
		57,116 58,116 59,116 59,117 60,117 61,117 61,118 61,119 62,119 63,119 64,119 64,118 63,118 63,117 62,117 62,116 63,116 63,117 
		64,117 65,117 65,118 66,118 66,119 67,119 67,118 	"/>
	<polygon class="st37" points="64,119 64,120 65,120 66,120 66,119 65,119 	"/>
	<polygon class="st37" points="68,119 67,119 67,120 68,120 69,120 69,119 	"/>
	<polygon class="st37" points="70,120 69,120 69,121 70,121 71,121 71,120 	"/>
	<polygon class="st37" points="73,121 72,121 71,121 71,122 72,122 73,122 74,122 75,122 75,121 74,121 	"/>
</g>
<g>
	<rect x="61" y="58" class="st38" width="1" height="1"/>
	<rect x="63" y="58" class="st38" width="1" height="1"/>
	<rect x="65" y="58" class="st38" width="1" height="1"/>
	<rect x="67" y="58" class="st38" width="1" height="1"/>
	<rect x="69" y="58" class="st38" width="1" height="1"/>
	<rect x="71" y="58" class="st38" width="1" height="1"/>
	<rect x="73" y="58" class="st38" width="1" height="1"/>
	<rect x="75" y="58" class="st38" width="1" height="1"/>
	<rect x="77" y="58" class="st38" width="1" height="1"/>
	<rect x="79" y="58" class="st38" width="1" height="1"/>
	<rect x="81" y="58" class="st38" width="1" height="1"/>
	<rect x="83" y="58" class="st38" width="1" height="1"/>
	<rect x="85" y="58" class="st38" width="1" height="1"/>
	<rect x="87" y="58" class="st38" width="1" height="1"/>
	<rect x="87" y="60" class="st38" width="1" height="1"/>
	<rect x="88" y="62" class="st38" width="1" height="1"/>
	<rect x="61" y="65" class="st38" width="1" height="1"/>
	<rect x="63" y="65" class="st38" width="1" height="1"/>
	<rect x="71" y="65" class="st38" width="1" height="1"/>
	<rect x="73" y="65" class="st38" width="1" height="1"/>
	<rect x="75" y="65" class="st38" width="1" height="1"/>
	<rect x="77" y="65" class="st38" width="1" height="1"/>
	<rect x="81" y="65" class="st38" width="1" height="1"/>
	<polygon class="st38" points="80,66 80,65 79,65 79,66 79,67 80,67 	"/>
	<polygon class="st38" points="68,76 68,77 69,77 69,76 69,75 68,75 	"/>
	<polygon class="st38" points="82,76 82,75 82,74 82,73 82,72 82,71 82,70 81,70 81,71 81,72 81,73 81,74 81,75 81,76 81,77 82,77 	
		"/>
	<rect x="99" y="97" class="st38" width="1" height="1"/>
	<path class="st38" d="M106,97v1v1h-1v1h-1v-1h-1v-1h-1h-1h-1v1h1v1h1v1h1v1v1v1v1h-1h-1v-1h-1v1h-1v1v1v1h-1v1h-1v1h-1v-1v-1v-1v-1
		h-1v1h-1v1v1v1v1h-1v1v1h-1h-1v-1v-1v-1v-1h-1v-1h-1h-1v1h-1v1h-1v1v1v1h-1v1h-1v1h-1v1h-1h-1v1h-1h-1v1h-1h-1h-1h-1h-1h-1h-1v1h-1
		h-1h-1v1h1h1v1h1h1h1h1v1h1h1h1h1v-1h1h1h1v-1h1h1h1v-1h1h1h1v-1h1h1h1v-1h1h1v-1v-1h1h1v-1h1v-1h1h1v-1h1v-1h1h1v-1h1v-1h1v-1h1
		v-1h1v-1h1v-1v-1v-1h1v-1v-1v-1v-1v-1v-1H106z M91,115h-1v-1h1V115z"/>
	<polygon class="st38" points="68,118 67,118 67,119 68,119 69,119 69,118 	"/>
</g>
</svg>
